<svg width="88" height="77" viewBox="0 0 88 77" fill="none" xmlns="http://www.w3.org/2000/svg">
<path d="M40.5096 73.9625C59.7771 72.4098 74.1378 55.5318 72.5851 36.2642C71.0325 16.9967 54.1544 2.63601 34.8869 4.18866C15.6194 5.74132 1.25868 22.6194 2.81134 41.8869C4.364 61.1544 21.2421 75.5151 40.5096 73.9625Z" fill="#5C4BD6" stroke="#1F1F1F" stroke-width="2" stroke-miterlimit="10" stroke-linecap="round" stroke-linejoin="round"/>
<path d="M38.5875 54.4439C38.6192 54.4443 38.6508 54.4433 38.6824 54.4407L38.683 54.4407L38.6836 54.4406L38.6842 54.4406L38.6848 54.4405L38.6853 54.4405L38.6859 54.4404L38.6865 54.4404L38.6871 54.4404L38.6877 54.4403L38.6883 54.4403L38.6889 54.4402L38.6895 54.4402L38.6901 54.4401L38.6908 54.4401L38.6914 54.44L38.692 54.44L38.6926 54.4399L38.6932 54.4399L38.6938 54.4398L38.6944 54.4398L38.695 54.4397L38.6956 54.4397L38.6962 54.4396L38.6969 54.4396L38.6975 54.4395L38.6981 54.4395L38.6987 54.4394L38.6993 54.4394L38.7 54.4393L38.7006 54.4393L38.7012 54.4392L38.7018 54.4392L38.7025 54.4391L38.7031 54.4391L38.7037 54.439L38.7043 54.439L38.705 54.4389L38.7056 54.4389L38.7062 54.4388L38.7069 54.4388L38.7075 54.4387L38.7081 54.4387L38.7088 54.4386L38.7094 54.4386L38.71 54.4385L38.7107 54.4385L38.7113 54.4384L38.7119 54.4384L38.7126 54.4383L38.7132 54.4383L38.7139 54.4382L38.7145 54.4381L38.7152 54.4381L38.7158 54.438L38.7164 54.438L38.7171 54.4379L38.7177 54.4379L38.7184 54.4378L38.719 54.4378L38.7197 54.4377L38.7203 54.4377L38.721 54.4376L38.7216 54.4376L38.7223 54.4375L38.723 54.4375L38.7236 54.4374L38.7243 54.4374L38.7249 54.4373L38.7256 54.4373L38.7262 54.4372L38.7269 54.4371L38.7276 54.4371L38.7282 54.437L38.7289 54.437L38.7296 54.4369L38.7302 54.4369L38.7309 54.4368L38.7315 54.4368L38.7322 54.4367L38.7329 54.4367L38.7335 54.4366L38.7342 54.4366L38.7349 54.4365L38.7356 54.4365L38.7362 54.4364L38.7369 54.4363L38.7376 54.4363L38.7382 54.4362L38.7389 54.4362L38.7396 54.4361L38.7403 54.4361L38.741 54.436L38.7416 54.436L38.7423 54.4359L38.743 54.4359L38.7437 54.4358L38.7443 54.4357L38.745 54.4357L38.7457 54.4356L38.7464 54.4356L38.7471 54.4355L38.7478 54.4355L38.7484 54.4354L38.7491 54.4354L38.7498 54.4353L38.7505 54.4352L38.7512 54.4352L38.7519 54.4351L38.7526 54.4351L38.7532 54.435L38.7539 54.435L38.7546 54.4349L38.7553 54.4349L38.756 54.4348L38.7567 54.4347L38.7574 54.4347L38.7581 54.4346L38.7588 54.4346L38.7595 54.4345L38.7602 54.4345L38.7609 54.4344L38.7616 54.4344L38.7623 54.4343L38.763 54.4342L38.7637 54.4342L38.7644 54.4341L38.7651 54.4341L38.7658 54.434L38.7665 54.434L38.7672 54.4339L38.7679 54.4338L38.7686 54.4338L38.7693 54.4337L38.77 54.4337L38.7707 54.4336L38.7714 54.4336L38.7721 54.4335L38.7728 54.4334L38.7735 54.4334L38.7742 54.4333L38.7749 54.4333L38.7756 54.4332L38.7763 54.4332L38.777 54.4331L38.7778 54.4331L38.7785 54.433L38.7792 54.4329L38.7799 54.4329L38.7806 54.4328L38.7813 54.4328L38.782 54.4327L38.7827 54.4326L38.7834 54.4326L38.7842 54.4325L38.7849 54.4325L38.7856 54.4324L38.7863 54.4324L38.787 54.4323L38.7877 54.4322L38.7885 54.4322L38.7892 54.4321L38.7899 54.4321L38.7906 54.432L38.7913 54.432L38.792 54.4319L38.7928 54.4318L38.7935 54.4318L38.7942 54.4317L38.7949 54.4317L38.7956 54.4316L38.7964 54.4316L38.7971 54.4315L38.7978 54.4314L38.7985 54.4314L38.7992 54.4313L38.8 54.4313L38.8007 54.4312L38.8014 54.4311L38.8021 54.4311L38.8029 54.431L38.8036 54.431L38.8043 54.4309L38.805 54.4309L38.8058 54.4308L38.8065 54.4307L38.8072 54.4307L38.8079 54.4306L38.8087 54.4306L38.8094 54.4305L38.8101 54.4304L38.8109 54.4304L38.8116 54.4303L38.8123 54.4303L38.813 54.4302L38.8138 54.4301L38.8145 54.4301L38.8152 54.43L38.816 54.43L38.8167 54.4299L38.8174 54.4299L38.8181 54.4298L38.8189 54.4297L38.8196 54.4297L38.8203 54.4296L38.8211 54.4296L38.8218 54.4295L38.8225 54.4294L38.8233 54.4294L38.824 54.4293L38.8247 54.4293L38.8255 54.4292L38.8262 54.4291L38.8269 54.4291L38.8277 54.429L38.8284 54.429L38.8291 54.4289L38.8299 54.4289L38.8306 54.4288L38.8313 54.4287L38.8321 54.4287L38.8328 54.4286L38.8335 54.4286L38.8343 54.4285L38.835 54.4284L38.8357 54.4284L38.8365 54.4283L38.8372 54.4283L38.8379 54.4282L38.8387 54.4281L38.8394 54.4281L38.8402 54.428L38.8409 54.428L38.8416 54.4279L38.8424 54.4278L38.8431 54.4278L38.8438 54.4277L38.8446 54.4277L38.8453 54.4276L38.846 54.4275L38.8468 54.4275L38.8475 54.4274L38.8483 54.4274L38.849 54.4273L38.8497 54.4272L38.8505 54.4272L38.8512 54.4271L38.8519 54.4271L38.8527 54.427L38.8534 54.427L38.8542 54.4269L38.8549 54.4268L38.8556 54.4268L38.8564 54.4267L38.8571 54.4267L38.8578 54.4266L38.8586 54.4265L38.8593 54.4265L38.8601 54.4264L38.8608 54.4264L38.8615 54.4263L38.8623 54.4262L38.863 54.4262L38.8637 54.4261L38.8645 54.4261L38.8652 54.426L38.866 54.4259L38.8667 54.4259L38.8674 54.4258L38.8682 54.4258L38.8689 54.4257L38.8696 54.4256L38.8704 54.4256L38.8711 54.4255L38.8719 54.4255L38.8726 54.4254L38.8733 54.4253L38.8741 54.4253L38.8748 54.4252L38.8755 54.4252L38.8763 54.4251L38.877 54.4251L38.8777 54.425L38.8785 54.4249L38.8792 54.4249L38.88 54.4248L38.8807 54.4248L38.8814 54.4247L38.8822 54.4246L38.8829 54.4246L38.8836 54.4245L38.8844 54.4245L38.8851 54.4244L38.8858 54.4243L38.8866 54.4243L38.8873 54.4242L38.888 54.4242L38.8888 54.4241L38.8895 54.424L38.8902 54.424L38.891 54.4239L38.8917 54.4239L38.8924 54.4238L38.8932 54.4237L38.8939 54.4237L38.8946 54.4236L38.8954 54.4236L38.8961 54.4235L38.8968 54.4235L38.8976 54.4234L38.8983 54.4233L38.899 54.4233L38.8997 54.4232L38.9005 54.4232L38.9012 54.4231L38.9019 54.423L38.9027 54.423L38.9034 54.4229L38.9041 54.4229L38.9049 54.4228L38.9056 54.4227L38.9063 54.4227L38.907 54.4226L38.9078 54.4226L38.9085 54.4225L38.9092 54.4225L38.9099 54.4224L38.9107 54.4223L38.9114 54.4223L38.9121 54.4222L38.9128 54.4222L38.9136 54.4221L38.9143 54.422L38.915 54.422L38.9157 54.4219L38.9165 54.4219L38.9172 54.4218L38.9179 54.4218L38.9186 54.4217L38.9194 54.4216L38.9201 54.4216L38.9208 54.4215L38.9215 54.4215L38.9222 54.4214L38.923 54.4213L38.9237 54.4213L38.9244 54.4212L38.9251 54.4212L38.9258 54.4211L38.9266 54.4211L38.9273 54.421L38.928 54.4209L38.9287 54.4209L38.9294 54.4208L38.9301 54.4208L38.9309 54.4207L38.9316 54.4207L38.9323 54.4206L38.933 54.4205L38.9337 54.4205L38.9344 54.4204L38.9351 54.4204L38.9359 54.4203L38.9366 54.4203L38.9373 54.4202L38.938 54.4201L38.9387 54.4201L38.9394 54.42L38.9401 54.42L38.9408 54.4199L38.9415 54.4199L38.9422 54.4198L38.943 54.4197L38.9437 54.4197L38.9444 54.4196L38.9451 54.4196L38.9458 54.4195L38.9465 54.4195L38.9472 54.4194L38.9479 54.4193L38.9486 54.4193L38.9493 54.4192L38.95 54.4192L38.9507 54.4191L38.9514 54.4191L38.9521 54.419L38.9528 54.4189L38.9535 54.4189L38.9542 54.4188L38.9549 54.4188L38.9556 54.4187L38.9563 54.4187L38.957 54.4186L38.9577 54.4186L38.9584 54.4185L38.9591 54.4184L38.9598 54.4184L38.9605 54.4183L38.9612 54.4183L38.9618 54.4182L38.9625 54.4182L38.9632 54.4181L38.9639 54.418L38.9646 54.418L38.9653 54.4179L38.966 54.4179L38.9667 54.4178L38.9674 54.4178L38.968 54.4177L38.9687 54.4177L38.9694 54.4176L38.9701 54.4176L38.9708 54.4175L38.9715 54.4174L38.9721 54.4174L38.9728 54.4173L38.9735 54.4173L38.9742 54.4172L38.9749 54.4172L38.9755 54.4171L38.9762 54.4171L38.9769 54.417L38.9776 54.4169L38.9782 54.4169L38.9789 54.4168L38.9796 54.4168L38.9803 54.4167L38.9809 54.4167L38.9816 54.4166L38.9823 54.4166L38.9829 54.4165L38.9836 54.4165L38.9843 54.4164L38.9849 54.4164L38.9856 54.4163L38.9863 54.4162L38.9869 54.4162L38.9876 54.4161L38.9883 54.4161L38.9889 54.416L38.9896 54.416L38.9903 54.4159L38.9909 54.4159L38.9916 54.4158L38.9922 54.4158L38.9929 54.4157L38.9936 54.4157L38.9942 54.4156L38.9949 54.4156L38.9955 54.4155L38.9962 54.4154L38.9968 54.4154L38.9975 54.4153L38.9981 54.4153L38.9988 54.4152L38.9994 54.4152L39.0001 54.4151L39.0007 54.4151L39.0014 54.415L39.002 54.415L39.0027 54.4149L39.0033 54.4149L39.0039 54.4148L39.0046 54.4148L39.0052 54.4147L39.0059 54.4147L39.0065 54.4146L39.0071 54.4146L39.0078 54.4145L39.0084 54.4145L39.009 54.4144L39.0097 54.4144L39.0103 54.4143L39.0109 54.4143L39.0116 54.4142L39.0122 54.4142L39.0128 54.4141L39.0135 54.4141L39.0141 54.414L39.0147 54.414L39.0153 54.4139L39.016 54.4139L39.0166 54.4138L39.0172 54.4138L39.0178 54.4137L39.0184 54.4137L39.0191 54.4136L39.0197 54.4136L39.0203 54.4135L39.0209 54.4135L39.0215 54.4134L39.0221 54.4134L39.0228 54.4133L39.0234 54.4133L39.024 54.4132L39.0246 54.4132L39.0252 54.4131L39.0258 54.4131L39.0264 54.413L39.027 54.413L39.0276 54.4129L39.0282 54.4129L39.0288 54.4128L39.0294 54.4128L39.03 54.4127L39.0306 54.4127L39.0312 54.4126L39.0318 54.4126L39.0324 54.4125L39.033 54.4125L39.0336 54.4124L39.0342 54.4124L39.0348 54.4123C40.1941 54.3189 41.2909 53.7799 42.1041 52.9607L42.1149 52.9498L82.4646 11.038L82.4719 11.0303C84.2884 9.10295 84.2451 6.04083 82.298 4.20576C80.372 2.39053 77.3128 2.43252 75.4773 4.37569C75.476 4.37701 75.4748 4.37833 75.4735 4.37965L38.7244 42.5478L25.1606 27.6242C25.1595 27.623 25.1584 27.6219 25.1574 27.6207C23.4039 25.6602 20.3249 25.4501 18.3485 27.2757C16.3903 29.0306 16.1824 32.1094 18.0098 34.0844C18.0111 34.0857 18.0123 34.0871 18.0135 34.0884L35.0761 52.8714C35.0818 52.8777 35.0875 52.8838 35.0933 52.8899C35.9822 53.8201 37.2324 54.4242 38.5875 54.4439Z" fill="white" stroke="#11102E" stroke-width="2" stroke-miterlimit="10" stroke-linecap="round" stroke-linejoin="round"/>
</svg>
