<svg width="83" height="102" viewBox="0 0 83 102" fill="none" xmlns="http://www.w3.org/2000/svg">
<path d="M0.899632 1.87879C0.350136 1.93422 -0.050382 2.42461 0.00504959 2.97411C0.0604812 3.5236 0.550872 3.92412 1.10037 3.86869L0.899632 1.87879ZM81.5 26.8727L80.515 26.7003L81.5 26.8727ZM53.0942 100.796C53.3283 101.297 53.9236 101.512 54.4238 101.278L62.5756 97.4643C63.0759 97.2302 63.2916 96.6349 63.0576 96.1347C62.8235 95.6345 62.2283 95.4187 61.728 95.6527L54.482 99.0431L51.0916 91.797C50.8575 91.2968 50.2623 91.081 49.7621 91.3151C49.2618 91.5491 49.046 92.1444 49.2801 92.6446L53.0942 100.796ZM5.03746 3.48749C5.58739 3.43655 5.99191 2.94945 5.94097 2.39952C5.89002 1.84959 5.40292 1.44507 4.85299 1.49601L5.03746 3.48749ZM12.7754 0.835603C12.2246 0.87607 11.8109 1.35539 11.8514 1.90619C11.8919 2.45699 12.3712 2.87069 12.922 2.83023L12.7754 0.835603ZM20.8164 2.33933C21.368 2.31169 21.7928 1.84213 21.7651 1.29053C21.7375 0.738941 21.2679 0.314196 20.7163 0.341838L20.8164 2.33933ZM28.6731 0.0535511C28.121 0.0653164 27.6829 0.522468 27.6946 1.07463C27.7064 1.62679 28.1636 2.06486 28.7157 2.0531L28.6731 0.0535511ZM36.6107 2.02242C37.163 2.03072 37.6174 1.58979 37.6257 1.03757C37.634 0.485345 37.193 0.0309482 36.6408 0.0226434L36.6107 2.02242ZM44.6086 0.322506C44.0574 0.288047 43.5826 0.706955 43.5481 1.25816C43.5137 1.80937 43.9326 2.28415 44.4838 2.31861L44.6086 0.322506ZM52.3253 3.05022C52.8731 3.12034 53.3741 2.7331 53.4442 2.18529C53.5143 1.63747 53.1271 1.13653 52.5793 1.06641L52.3253 3.05022ZM60.4735 2.4316C59.9347 2.31023 59.3996 2.64862 59.2782 3.18741C59.1569 3.7262 59.4953 4.26135 60.034 4.38271L60.4735 2.4316ZM67.49 6.60862C68.0045 6.80922 68.5843 6.5547 68.7849 6.04014C68.9855 5.52557 68.731 4.94582 68.2164 4.74522L67.49 6.60862ZM75.4216 8.5954C74.977 8.26775 74.351 8.36255 74.0234 8.80715C73.6957 9.25175 73.7905 9.87777 74.2351 10.2054L75.4216 8.5954ZM79.1659 15.7469C79.4239 16.2352 80.0289 16.4219 80.5172 16.1639C81.0056 15.9059 81.1923 15.3009 80.9343 14.8126L79.1659 15.7469ZM82.8582 22.9048C82.8573 22.3526 82.4088 21.9056 81.8565 21.9065C81.3042 21.9074 80.8573 22.3559 80.8582 22.9082L82.8582 22.9048ZM79.8013 30.5596C79.6955 31.1017 80.0493 31.6268 80.5914 31.7325C81.1335 31.8382 81.6586 31.4845 81.7643 30.9424L79.8013 30.5596ZM80.0918 38.6937C80.2192 38.1563 79.8868 37.6174 79.3494 37.49C78.812 37.3626 78.2731 37.6949 78.1457 38.2323L80.0918 38.6937ZM76.1777 45.8242C76.0279 46.3558 76.3373 46.9082 76.8689 47.058C77.4005 47.2078 77.9529 46.8984 78.1027 46.3668L76.1777 45.8242ZM75.7907 53.9404C75.9634 53.4158 75.6781 52.8506 75.1535 52.6779C74.6289 52.5053 74.0636 52.7906 73.891 53.3152L75.7907 53.9404ZM71.2774 60.7092C71.082 61.2258 71.3425 61.8029 71.8591 61.9983C72.3756 62.1936 72.9528 61.9332 73.1481 61.4166L71.2774 60.7092ZM70.1876 68.7691C70.4045 68.2612 70.1686 67.6736 69.6607 67.4566C69.1528 67.2397 68.5652 67.4756 68.3483 67.9835L70.1876 68.7691ZM65.1292 75.1328C64.8932 75.6322 65.1068 76.2282 65.6061 76.4642C66.1055 76.7001 66.7016 76.4865 66.9375 75.9872L65.1292 75.1328ZM63.4489 83.0929C63.6985 82.6003 63.5015 81.9986 63.0088 81.749C62.5161 81.4994 61.9144 81.6964 61.6648 82.189L63.4489 83.0929ZM58.0681 89.1986C57.8162 89.69 58.0104 90.2927 58.5019 90.5446C58.9933 90.7965 59.596 90.6024 59.8479 90.1109L58.0681 89.1986ZM56.4056 97.1415C56.6319 96.6378 56.4071 96.0459 55.9033 95.8195C55.3996 95.5931 54.8077 95.818 54.5813 96.3218L56.4056 97.1415ZM1.10037 3.86869C2.40258 3.73733 3.71578 3.60992 5.03746 3.48749L4.85299 1.49601C3.52557 1.61898 2.20694 1.74691 0.899632 1.87879L1.10037 3.86869ZM12.922 2.83023C15.5464 2.63741 18.184 2.47125 20.8164 2.33933L20.7163 0.341838C18.0669 0.474614 15.4136 0.641773 12.7754 0.835603L12.922 2.83023ZM28.7157 2.0531C31.3797 1.99634 34.0179 1.98342 36.6107 2.02242L36.6408 0.0226434C34.0211 -0.0167537 31.3585 -0.00366855 28.6731 0.0535511L28.7157 2.0531ZM44.4838 2.31861C47.1864 2.48757 49.8087 2.72806 52.3253 3.05022L52.5793 1.06641C50.014 0.73802 47.3482 0.493778 44.6086 0.322506L44.4838 2.31861ZM60.034 4.38271C62.7298 4.98992 65.2283 5.72692 67.49 6.60862L68.2164 4.74522C65.844 3.82036 63.2469 3.05629 60.4735 2.4316L60.034 4.38271ZM74.2351 10.2054C76.3806 11.7866 78.044 13.6235 79.1659 15.7469L80.9343 14.8126C79.6491 12.3802 77.7672 10.324 75.4216 8.5954L74.2351 10.2054ZM80.8582 22.9082C80.8602 24.0994 80.7492 25.3621 80.515 26.7003L82.485 27.045C82.7375 25.6022 82.8604 24.2228 82.8582 22.9048L80.8582 22.9082ZM80.515 26.7003C80.2861 28.008 80.048 29.2943 79.8013 30.5596L81.7643 30.9424C82.0135 29.6644 82.254 28.3654 82.485 27.045L80.515 26.7003ZM78.1457 38.2323C77.5227 40.8601 76.8642 43.389 76.1777 45.8242L78.1027 46.3668C78.7967 43.9051 79.4622 41.3491 80.0918 38.6937L78.1457 38.2323ZM73.891 53.3152C73.0423 55.8939 72.1672 58.356 71.2774 60.7092L73.1481 61.4166C74.0478 59.0373 74.9325 56.5479 75.7907 53.9404L73.891 53.3152ZM68.3483 67.9835C67.2724 70.5025 66.193 72.8812 65.1292 75.1328L66.9375 75.9872C68.0106 73.7161 69.1005 71.3142 70.1876 68.7691L68.3483 67.9835ZM61.6648 82.189C60.3932 84.6989 59.186 87.0177 58.0681 89.1986L59.8479 90.1109C60.9575 87.9463 62.1754 85.6066 63.4489 83.0929L61.6648 82.189ZM54.5813 96.3218C54.003 97.6087 53.4907 98.8433 53.0599 100.032L54.9401 100.713C55.3497 99.5837 55.8416 98.3966 56.4056 97.1415L54.5813 96.3218Z" fill="#1F1F1F"/>
</svg>
