<svg width="110" height="54" viewBox="0 0 110 54" fill="none" xmlns="http://www.w3.org/2000/svg">
<path d="M23.9947 26.1024L1 11.3634V1.72021L32.5182 1.7204" fill="#1F1F1F"/>
<path d="M23.9947 26.1024L1 11.3634V1.72021L32.5182 1.7204" stroke="#1F1F1F" stroke-width="2" stroke-miterlimit="10" stroke-linecap="round" stroke-linejoin="round"/>
<path d="M76.7475 32.407L48.7955 1.82422H29.4806L24.1904 25.9644L47.1268 49.0909C48.9927 50.9568 52.0176 50.9568 53.8835 49.0909C54.2859 48.6885 54.5963 48.2301 54.8249 47.743L56.1731 49.0909C58.0387 50.9568 61.0639 50.9568 62.9295 49.0909C63.6177 48.4027 64.0503 47.5563 64.2306 46.669C66.1026 48.0851 68.7774 47.9449 70.4843 46.238C72.2511 44.4711 72.3422 41.6659 70.7621 39.7886C72.6145 40.9971 75.1209 40.7894 76.7469 39.1634C78.6134 37.2978 78.6135 34.2726 76.7475 32.407Z" fill="#FFD8D8" stroke="#1F1F1F" stroke-width="2" stroke-miterlimit="10" stroke-linecap="round" stroke-linejoin="round"/>
<path d="M70.7631 39.7889L55.1689 23.728" stroke="#1F1F1F" stroke-width="2" stroke-miterlimit="10" stroke-linecap="round" stroke-linejoin="round"/>
<path d="M64.1999 46.7293L50.7803 32.9082" stroke="#1F1F1F" stroke-width="2" stroke-miterlimit="10" stroke-linecap="round" stroke-linejoin="round"/>
<path d="M55.1694 47.8917L44.7285 37.1382" stroke="#1F1F1F" stroke-width="2" stroke-miterlimit="10" stroke-linecap="round" stroke-linejoin="round"/>
<path d="M64.5003 2.66657C61.6718 1.56516 58.6629 1 55.6272 1H53.3857C50.4359 1 47.5571 1.9042 45.1371 3.59046L38.1161 8.38404C38.0915 8.40035 38.0675 8.41727 38.0432 8.43388L37.9251 8.51448L37.9284 8.51972C35.9862 9.91463 34.8174 12.319 35.2122 14.9706C35.6333 17.7998 37.885 20.078 40.7081 20.5389C42.4463 20.8226 44.0772 20.4244 45.3986 19.5836L45.4011 19.5873L45.4974 19.5236C45.5288 19.503 45.5601 19.483 45.5909 19.4618L51.9615 15.25C54.5707 13.525 58.0239 13.8212 60.3011 15.9656L60.3777 16.0379L76.7475 32.4079L79.9951 29.5151V4.97491H76.785C72.5824 4.97399 68.4165 4.19162 64.5003 2.66657Z" fill="#FFD8D8" stroke="#1F1F1F" stroke-width="2" stroke-miterlimit="10" stroke-linecap="round" stroke-linejoin="round"/>
<path d="M37.4434 8.90621L39.6225 11.3718C39.6225 11.3718 45.763 8.19215 43.9318 4.4126" stroke="#1F1F1F" stroke-width="2" stroke-miterlimit="10" stroke-linecap="round" stroke-linejoin="round"/>
<path d="M80.0928 4.69336H108.638V17.4765L80.0928 29.67" fill="#FB4903"/>
<path d="M80.0928 4.69336H108.638V17.4765L80.0928 29.67" stroke="#1F1F1F" stroke-width="2" stroke-miterlimit="10" stroke-linecap="round" stroke-linejoin="round"/>
<path d="M28.0755 36.8506C31.042 36.8506 33.4468 34.4458 33.4468 31.4793C33.4468 28.5127 31.042 26.1079 28.0755 26.1079C25.1089 26.1079 22.7041 28.5127 22.7041 31.4793C22.7041 34.4458 25.1089 36.8506 28.0755 36.8506Z" fill="#FFD8D8" stroke="#1F1F1F" stroke-width="2" stroke-miterlimit="10" stroke-linecap="round" stroke-linejoin="round"/>
<path d="M34.6467 45.5533C37.6133 45.5533 40.0181 43.1484 40.0181 40.1819C40.0181 37.2154 37.6133 34.8105 34.6467 34.8105C31.6802 34.8105 29.2754 37.2154 29.2754 40.1819C29.2754 43.1484 31.6802 45.5533 34.6467 45.5533Z" fill="#FFD8D8" stroke="#1F1F1F" stroke-width="2" stroke-miterlimit="10" stroke-linecap="round" stroke-linejoin="round"/>
<path d="M42.1956 53C45.1621 53 47.5669 50.5952 47.5669 47.6287C47.5669 44.6622 45.1621 42.2573 42.1956 42.2573C39.2291 42.2573 36.8242 44.6622 36.8242 47.6287C36.8242 50.5952 39.2291 53 42.1956 53Z" fill="#FFD8D8" stroke="#1F1F1F" stroke-width="2" stroke-miterlimit="10" stroke-linecap="round" stroke-linejoin="round"/>
</svg>
