<svg width="106" height="52" viewBox="0 0 106 52" fill="none" xmlns="http://www.w3.org/2000/svg">
<path d="M34.9958 29.0797L73.4607 29.0797L73.4607 41.3982L79.2614 41.3982L79.2614 29.0797L86.1952 29.0797L86.1952 41.3982L91.9954 41.3982L91.9954 29.0797L101.552 29.0797C103.457 29.0797 105 27.5363 105 25.6321C105 23.728 103.457 22.1846 101.552 22.1846L91.9954 22.1846L91.9954 9.86612L86.1952 9.86612L86.1952 22.1846L79.2614 22.1846L79.2614 9.86612L73.4607 9.86612L73.4607 22.1846L34.9958 22.1846C33.833 10.2128 26.7042 0.999997 18.0815 0.999996C8.6476 0.999996 1 12.0282 0.999999 25.6321C0.999998 39.2361 8.6476 50.2643 18.0815 50.2643C26.7037 50.2643 33.8325 41.051 34.9958 29.0797Z" fill="#3AE794" stroke="#1F1F1F" stroke-width="2" stroke-miterlimit="10" stroke-linecap="round" stroke-linejoin="round"/>
<path d="M25.9004 32.5611C25.9004 29.805 24.8555 27.3311 23.1981 25.6321C24.8555 23.933 25.9004 21.4592 25.9004 18.7031C25.9004 13.5793 22.2929 9.42578 17.8426 9.42578C13.3923 9.42578 9.78477 13.5793 9.78477 18.7031C9.78477 21.4592 10.8297 23.933 12.487 25.6321C10.8297 27.3311 9.78477 29.8055 9.78477 32.5611C9.78477 37.6849 13.3923 41.8384 17.8426 41.8384C22.2929 41.8384 25.9004 37.6849 25.9004 32.5611Z" fill="white" stroke="#1F1F1F" stroke-width="2" stroke-miterlimit="10" stroke-linecap="round" stroke-linejoin="round"/>
</svg>
