<svg width="127" height="54" viewBox="0 0 127 54" fill="none" xmlns="http://www.w3.org/2000/svg">
<path d="M6.45703 44.4357L26.87 10.588L46.7917 45.8598L58.9518 22.1082L69.2104 34.821L85.6039 5.79395L103.298 34.3158" stroke="#1F1F1F" stroke-width="2" stroke-miterlimit="10" stroke-linecap="round" stroke-linejoin="round"/>
<path d="M26.9347 15.3821C29.5824 15.3821 31.7288 13.2357 31.7288 10.588C31.7288 7.94033 29.5824 5.79395 26.9347 5.79395C24.287 5.79395 22.1406 7.94033 22.1406 10.588C22.1406 13.2357 24.287 15.3821 26.9347 15.3821Z" fill="#FB4903" stroke="#1F1F1F" stroke-width="2" stroke-miterlimit="10" stroke-linecap="round" stroke-linejoin="round"/>
<path d="M5.79409 49.9949C8.44179 49.9949 10.5882 47.8485 10.5882 45.2008C10.5882 42.5531 8.44179 40.4067 5.79409 40.4067C3.14639 40.4067 1 42.5531 1 45.2008C1 47.8485 3.14639 49.9949 5.79409 49.9949Z" fill="#3AE794" stroke="#1F1F1F" stroke-width="2" stroke-miterlimit="10" stroke-linecap="round" stroke-linejoin="round"/>
<path d="M58.9552 27.0477C61.6029 27.0477 63.7493 24.9013 63.7493 22.2536C63.7493 19.6059 61.6029 17.4595 58.9552 17.4595C56.3075 17.4595 54.1611 19.6059 54.1611 22.2536C54.1611 24.9013 56.3075 27.0477 58.9552 27.0477Z" fill="#5C4BD6" stroke="#1F1F1F" stroke-width="2" stroke-miterlimit="10" stroke-linecap="round" stroke-linejoin="round"/>
<path d="M85.1125 10.5882C87.7602 10.5882 89.9066 8.4418 89.9066 5.7941C89.9066 3.14639 87.7602 1 85.1125 1C82.4648 1 80.3184 3.14639 80.3184 5.7941C80.3184 8.4418 82.4648 10.5882 85.1125 10.5882Z" fill="#1F1F1F" stroke="#1F1F1F" stroke-width="2" stroke-miterlimit="10" stroke-linecap="round" stroke-linejoin="round"/>
<path d="M120.329 17.1087C122.977 17.1087 125.123 14.9623 125.123 12.3146C125.123 9.6669 122.977 7.52051 120.329 7.52051C117.682 7.52051 115.535 9.6669 115.535 12.3146C115.535 14.9623 117.682 17.1087 120.329 17.1087Z" fill="#1F1F1F" stroke="#1F1F1F" stroke-width="2" stroke-miterlimit="10" stroke-linecap="round" stroke-linejoin="round"/>
<path d="M69.6222 39.6414C72.2699 39.6414 74.4163 37.495 74.4163 34.8473C74.4163 32.1996 72.2699 30.0532 69.6222 30.0532C66.9745 30.0532 64.8281 32.1996 64.8281 34.8473C64.8281 37.495 66.9745 39.6414 69.6222 39.6414Z" fill="#3AE794" stroke="#1F1F1F" stroke-width="2" stroke-miterlimit="10" stroke-linecap="round" stroke-linejoin="round"/>
<path d="M106.463 30.9496L120.329 12.3145" stroke="#1F1F1F" stroke-width="2" stroke-miterlimit="10" stroke-linecap="round" stroke-linejoin="round"/>
<path d="M103.297 39.199C105.945 39.199 108.091 37.0526 108.091 34.4049C108.091 31.7572 105.945 29.6108 103.297 29.6108C100.649 29.6108 98.5029 31.7572 98.5029 34.4049C98.5029 37.0526 100.649 39.199 103.297 39.199Z" fill="white" stroke="#1F1F1F" stroke-width="2" stroke-miterlimit="10" stroke-linecap="round" stroke-linejoin="round"/>
<path d="M47.0207 52.9998C49.6684 52.9998 51.8147 50.8534 51.8147 48.2057C51.8147 45.558 49.6684 43.4116 47.0207 43.4116C44.373 43.4116 42.2266 45.558 42.2266 48.2057C42.2266 50.8534 44.373 52.9998 47.0207 52.9998Z" fill="#5C4BD6" stroke="#1F1F1F" stroke-width="2" stroke-miterlimit="10" stroke-linecap="round" stroke-linejoin="round"/>
</svg>
