<svg width="115" height="26" viewBox="0 0 115 26" fill="none" xmlns="http://www.w3.org/2000/svg">
<path d="M10.71 25.725C8.72667 25.725 7.04667 25.3867 5.67 24.71C4.31667 24.0333 3.22 23.1117 2.38 21.945C1.56333 20.7783 0.956667 19.4483 0.56 17.955C0.186667 16.4617 0 14.91 0 13.3L0 7.28H3.92L3.92 13.3C3.92 14.4433 4.03667 15.5517 4.27 16.625C4.50333 17.675 4.87667 18.62 5.39 19.46C5.90333 20.3 6.59167 20.965 7.455 21.455C8.34167 21.945 9.42667 22.19 10.71 22.19C12.0167 22.19 13.1017 21.945 13.965 21.455C14.8517 20.9417 15.54 20.265 16.03 19.425C16.5433 18.5617 16.9167 17.605 17.15 16.555C17.3833 15.505 17.5 14.42 17.5 13.3V0H21.455V13.3C21.455 15.0033 21.245 16.6133 20.825 18.13C20.4283 19.6233 19.7983 20.9417 18.935 22.085C18.095 23.205 16.9983 24.0917 15.645 24.745C14.2917 25.3983 12.6467 25.725 10.71 25.725Z" fill="#1F1F1F"/>
<path d="M42.2857 25.55H38.4357V15.295C38.4357 13.5917 38.1557 12.3433 37.5957 11.55C37.0591 10.7567 36.2541 10.36 35.1807 10.36C34.4341 10.36 33.6874 10.5467 32.9407 10.92C32.2174 11.2933 31.5641 11.8067 30.9807 12.46C30.3974 13.09 29.9774 13.825 29.7207 14.665V25.55H25.8707V7.245H29.3707V10.92C29.8374 10.1033 30.4441 9.40333 31.1907 8.82C31.9607 8.21333 32.8241 7.74667 33.7807 7.42C34.7374 7.09333 35.7524 6.93 36.8257 6.93C37.9224 6.93 38.8207 7.12833 39.5207 7.525C40.2441 7.92167 40.8041 8.47 41.2007 9.17C41.6207 9.84667 41.9007 10.64 42.0407 11.55C42.2041 12.4367 42.2857 13.3817 42.2857 14.385V25.55Z" fill="#1F1F1F"/>
<path d="M46.7895 0H50.6395V20.265C50.6395 21.1983 50.7795 21.7933 51.0595 22.05C51.3395 22.3067 51.6895 22.435 52.1095 22.435C52.5762 22.435 53.0079 22.3883 53.4045 22.295C53.8245 22.2017 54.1862 22.085 54.4895 21.945L55.0495 24.99C54.4895 25.2233 53.8245 25.4217 53.0545 25.585C52.2845 25.7483 51.5962 25.83 50.9895 25.83C49.6829 25.83 48.6562 25.4683 47.9095 24.745C47.1629 23.9983 46.7895 22.9717 46.7895 21.665V0Z" fill="#1F1F1F"/>
<path d="M65.5069 25.9C64.0602 25.9 62.7652 25.655 61.6219 25.165C60.4785 24.6517 59.4869 23.9517 58.6469 23.065C57.8302 22.1783 57.2002 21.175 56.7569 20.055C56.3135 18.9117 56.0919 17.6983 56.0919 16.415C56.0919 15.1317 56.3135 13.9183 56.7569 12.775C57.2002 11.6317 57.8302 10.6283 58.6469 9.765C59.4869 8.87833 60.4785 8.19 61.6219 7.7C62.7885 7.18667 64.0835 6.93 65.5069 6.93C66.9302 6.93 68.2135 7.18667 69.3569 7.7C70.5235 8.19 71.5152 8.87833 72.3319 9.765C73.1719 10.6283 73.8135 11.6317 74.2569 12.775C74.7002 13.9183 74.9219 15.1317 74.9219 16.415C74.9219 17.6983 74.7002 18.9117 74.2569 20.055C73.8135 21.175 73.1719 22.1783 72.3319 23.065C71.5152 23.9517 70.5235 24.6517 69.3569 25.165C68.2135 25.655 66.9302 25.9 65.5069 25.9ZM60.0469 16.45C60.0469 17.6167 60.2919 18.6667 60.7819 19.6C61.2719 20.5333 61.9252 21.2683 62.7419 21.805C63.5585 22.3417 64.4802 22.61 65.5069 22.61C66.5102 22.61 67.4202 22.3417 68.2369 21.805C69.0769 21.245 69.7419 20.4983 70.2319 19.565C70.7219 18.6083 70.9669 17.5583 70.9669 16.415C70.9669 15.2483 70.7219 14.1983 70.2319 13.265C69.7419 12.3317 69.0769 11.5967 68.2369 11.06C67.4202 10.5 66.5102 10.22 65.5069 10.22C64.4802 10.22 63.5585 10.5 62.7419 11.06C61.9252 11.62 61.2719 12.3667 60.7819 13.3C60.2919 14.21 60.0469 15.26 60.0469 16.45Z" fill="#1F1F1F"/>
<path d="M86.6316 25.9C85.2082 25.9 83.9132 25.655 82.7466 25.165C81.6032 24.6517 80.6116 23.9517 79.7716 23.065C78.9316 22.1783 78.2782 21.1633 77.8116 20.02C77.3682 18.8767 77.1466 17.6633 77.1466 16.38C77.1466 14.6533 77.5316 13.0783 78.3016 11.655C79.0949 10.2317 80.1916 9.08833 81.5916 8.225C83.0149 7.36167 84.6949 6.93 86.6316 6.93C88.4982 6.93 90.1199 7.35 91.4966 8.19C92.8966 9.00667 93.9232 10.1033 94.5766 11.48L90.8316 12.67C90.4116 11.9 89.8166 11.305 89.0466 10.885C88.2999 10.4417 87.4716 10.22 86.5616 10.22C85.5349 10.22 84.6016 10.4883 83.7616 11.025C82.9449 11.5383 82.2916 12.2617 81.8016 13.195C81.3349 14.105 81.1016 15.1667 81.1016 16.38C81.1016 17.5467 81.3466 18.6083 81.8366 19.565C82.3266 20.4983 82.9799 21.245 83.7966 21.805C84.6366 22.3417 85.5699 22.61 86.5966 22.61C87.2266 22.61 87.8332 22.505 88.4166 22.295C89.0232 22.0617 89.5482 21.7583 89.9916 21.385C90.4349 20.9883 90.7499 20.5567 90.9366 20.09L94.7166 21.21C94.3199 22.12 93.7249 22.925 92.9316 23.625C92.1616 24.325 91.2399 24.885 90.1666 25.305C89.1166 25.7017 87.9382 25.9 86.6316 25.9Z" fill="#1F1F1F"/>
<path d="M110.627 25.55L104.747 17.115L101.737 19.985V25.55H97.8873V0H101.737V16.1L110.207 7.28H114.337L107.232 14.945L114.722 25.55H110.627Z" fill="#1F1F1F"/>
</svg>
