<svg width="290" height="355" viewBox="0 0 290 355" fill="none" xmlns="http://www.w3.org/2000/svg">
<path d="M12.6779 92.8054L132.215 28.0297C131.171 26.4915 130.202 24.7025 129.232 22.9135C124.649 14.4565 123.632 8.69607 123.204 3.24735L3.66684 68.0231C4.09473 73.4718 5.11231 79.2322 9.69508 87.6892C10.7526 89.6408 11.6339 91.2672 12.6779 92.8054Z" fill="#FB4903" stroke="#1F1F1F" stroke-width="2" stroke-miterlimit="10" stroke-linecap="round" stroke-linejoin="round"/>
<path d="M65.1282 189.987C51.2918 164.453 60.562 159.43 46.6374 133.733C32.801 108.2 23.5308 113.223 9.60619 87.5266C5.02342 79.0695 4.00587 73.3092 3.57798 67.8605L123.115 3.08475C123.543 8.53347 124.56 14.2938 129.143 22.7509C142.98 48.2846 152.25 43.2612 166.174 68.9576C180.011 94.4914 170.741 99.5148 184.665 125.211L65.1282 189.987Z" stroke="#1F1F1F" stroke-width="2" stroke-miterlimit="10" stroke-linecap="round" stroke-linejoin="round"/>
<path d="M58.2549 101.981C61.3088 100.326 62.4429 96.5086 60.7881 93.4547C59.1332 90.4008 55.3159 89.2667 52.262 90.9215C49.2081 92.5764 48.074 96.3936 49.7288 99.4476C51.3837 102.501 55.2009 103.636 58.2549 101.981Z" stroke="#1F1F1F" stroke-width="2" stroke-miterlimit="10" stroke-linecap="round" stroke-linejoin="round"/>
<path d="M82.3359 159.623C85.3899 157.968 86.524 154.151 84.8691 151.097C83.2142 148.043 79.397 146.909 76.3431 148.564C73.2892 150.219 72.155 154.036 73.8099 157.09C75.4648 160.144 79.282 161.278 82.3359 159.623Z" stroke="#1F1F1F" stroke-width="2" stroke-miterlimit="10" stroke-linecap="round" stroke-linejoin="round"/>
<path d="M69.5898 129.501C72.6437 127.846 73.7779 124.029 72.123 120.975C70.4681 117.921 66.6509 116.787 63.597 118.442C60.5431 120.096 59.4089 123.914 61.0638 126.968C62.7187 130.022 66.5359 131.156 69.5898 129.501Z" fill="#1F1F1F" stroke="#1F1F1F" stroke-width="2" stroke-miterlimit="10" stroke-linecap="round" stroke-linejoin="round"/>
<path d="M76.4014 84.9932L133.812 53.8832" stroke="#1F1F1F" stroke-width="2" stroke-miterlimit="10" stroke-linecap="round" stroke-linejoin="round"/>
<path d="M85.1338 113.924L142.707 82.7262" stroke="#1F1F1F" stroke-width="2" stroke-miterlimit="10" stroke-linecap="round" stroke-linejoin="round"/>
<path d="M100.788 139.315L158.361 108.117" stroke="#1F1F1F" stroke-width="2" stroke-miterlimit="10" stroke-linecap="round" stroke-linejoin="round"/>
<path d="M249.368 351.687C256.271 329.624 248.261 327.118 255.208 304.914C262.111 282.85 270.121 285.356 277.068 263.152C279.355 255.845 279.268 251.189 278.769 246.867L175.478 214.551C175.977 218.873 176.064 223.528 173.777 230.836C166.874 252.899 158.864 250.393 151.917 272.597C145.014 294.661 153.025 297.167 146.078 319.371L249.368 351.687Z" fill="white" stroke="#1F1F1F" stroke-width="2" stroke-miterlimit="10" stroke-linecap="round" stroke-linejoin="round"/>
<path d="M275.477 267.746L172.186 235.43C172.766 234.068 173.25 232.523 173.734 230.977C176.02 223.669 175.934 219.013 175.435 214.691L278.725 247.008C279.225 251.33 279.311 255.985 277.025 263.293C276.541 264.839 275.917 266.341 275.477 267.746Z" fill="#3AE794" stroke="#1F1F1F" stroke-width="2" stroke-miterlimit="10" stroke-linecap="round" stroke-linejoin="round"/>
<path d="M182.674 263.552C185.313 264.377 188.121 262.907 188.947 260.268C189.773 257.63 188.303 254.821 185.664 253.995C183.025 253.17 180.216 254.64 179.391 257.279C178.565 259.917 180.035 262.726 182.674 263.552Z" stroke="#1F1F1F" stroke-width="2" stroke-miterlimit="10" stroke-linecap="round" stroke-linejoin="round"/>
<path d="M163.264 309.319C165.903 310.145 168.711 308.675 169.537 306.036C170.362 303.397 168.893 300.589 166.254 299.763C163.615 298.937 160.806 300.407 159.981 303.046C159.155 305.685 160.625 308.494 163.264 309.319Z" stroke="#1F1F1F" stroke-width="2" stroke-miterlimit="10" stroke-linecap="round" stroke-linejoin="round"/>
<path d="M173.389 285.333C176.028 286.158 178.836 284.688 179.662 282.05C180.487 279.411 179.018 276.602 176.379 275.777C173.74 274.951 170.931 276.421 170.106 279.06C169.28 281.699 170.75 284.507 173.389 285.333Z" fill="#1F1F1F" stroke="#1F1F1F" stroke-width="2" stroke-miterlimit="10" stroke-linecap="round" stroke-linejoin="round"/>
<path d="M202.437 264.488L252.185 280.053" stroke="#1F1F1F" stroke-width="2" stroke-miterlimit="10" stroke-linecap="round" stroke-linejoin="round"/>
<path d="M190 290L239.748 305.565" stroke="#1F1F1F" stroke-width="2" stroke-miterlimit="10" stroke-linecap="round" stroke-linejoin="round"/>
<path d="M185.136 308.447L234.884 324.012" stroke="#1F1F1F" stroke-width="2" stroke-miterlimit="10" stroke-linecap="round" stroke-linejoin="round"/>
<path d="M268 107C277 124 278.4 145.6 269.1 162.5" stroke="#1F1F1F" stroke-width="2" stroke-miterlimit="10" stroke-linecap="round" stroke-linejoin="round"/>
<path d="M288.201 142.2C288.701 152.7 285.401 163.3 279.101 171.6" stroke="#1F1F1F" stroke-width="2" stroke-miterlimit="10" stroke-linecap="round" stroke-linejoin="round"/>
<path d="M86.6644 353.054C83.6891 342.972 84.3817 331.892 88.5341 322.335" stroke="#1F1F1F" stroke-width="2" stroke-miterlimit="10" stroke-linecap="round" stroke-linejoin="round"/>
<path d="M99.8847 121.676C100.104 121.558 100.366 121.555 100.588 121.667L104.801 123.791L105.371 119.105C105.401 118.86 105.548 118.645 105.765 118.529C106.307 118.239 106.951 118.682 106.873 119.292L106.22 124.41L110.666 126.629C111.216 126.904 111.227 127.685 110.685 127.975C110.467 128.092 110.206 128.095 109.985 127.983L105.947 125.934L105.412 130.427C105.382 130.675 105.233 130.892 105.014 131.01C104.467 131.302 103.818 130.856 103.896 130.241L104.514 125.323L99.905 123.031C99.35 122.755 99.3382 121.968 99.8847 121.676Z" fill="#1F1F1F"/>
<path d="M109.019 116.788C109.238 116.671 109.5 116.668 109.722 116.78L113.935 118.904L114.505 114.217C114.535 113.973 114.682 113.758 114.899 113.642C115.442 113.352 116.085 113.795 116.007 114.405L115.355 119.523L119.8 121.742C120.351 122.017 120.362 122.798 119.819 123.088C119.601 123.205 119.34 123.207 119.119 123.095L115.081 121.047L114.546 125.54C114.516 125.787 114.367 126.005 114.148 126.123C113.601 126.415 112.952 125.969 113.03 125.354L113.648 120.435L109.039 118.144C108.484 117.868 108.472 117.081 109.019 116.788Z" fill="#1F1F1F"/>
<path d="M118.153 111.901C118.372 111.784 118.634 111.78 118.856 111.892L123.069 114.017L123.639 109.33C123.669 109.085 123.816 108.871 124.033 108.754C124.576 108.464 125.219 108.907 125.141 109.517L124.489 114.635L128.934 116.855C129.485 117.129 129.496 117.91 128.953 118.2C128.735 118.317 128.474 118.32 128.253 118.208L124.215 116.159L123.68 120.652C123.65 120.9 123.501 121.118 123.282 121.235C122.735 121.528 122.086 121.082 122.164 120.467L122.782 115.548L118.173 113.257C117.618 112.981 117.606 112.193 118.153 111.901Z" fill="#1F1F1F"/>
<path d="M127.287 107.014C127.506 106.896 127.768 106.893 127.99 107.005L132.203 109.13L132.773 104.443C132.803 104.198 132.95 103.983 133.168 103.867C133.71 103.577 134.353 104.02 134.275 104.63L133.623 109.748L138.068 111.967C138.619 112.242 138.63 113.023 138.088 113.313C137.869 113.43 137.608 113.433 137.387 113.321L133.349 111.272L132.814 115.765C132.784 116.013 132.636 116.23 132.416 116.348C131.869 116.64 131.22 116.194 131.298 115.579L131.916 110.661L127.307 108.369C126.752 108.093 126.74 107.306 127.287 107.014Z" fill="#1F1F1F"/>
<path d="M147.57 107.899C147.449 107.674 147.536 107.394 147.764 107.277C147.986 107.163 148.258 107.248 148.376 107.468L149.095 108.81C149.214 109.033 149.13 109.31 148.907 109.429C148.684 109.549 148.407 109.465 148.288 109.242L147.57 107.899ZM147.58 107.152C147.267 107.34 146.861 107.221 146.698 106.894L143.317 100.111C143.206 99.8875 143.26 99.6174 143.448 99.4538C143.714 99.2222 144.127 99.2998 144.291 99.6125L147.813 106.324C147.967 106.618 147.865 106.982 147.58 107.152ZM142.159 97.7883C142.04 97.5655 142.124 97.2883 142.347 97.1691C142.57 97.0499 142.847 97.1339 142.966 97.3567L143.651 98.6361C143.759 98.8386 143.701 99.0901 143.514 99.2238C143.289 99.3847 142.974 99.3114 142.844 99.0678L142.159 97.7883ZM146.813 98.8536C146.809 99.121 146.525 99.3255 146.258 99.3124C146.029 99.2874 145.774 99.2877 145.493 99.3134C145.221 99.3343 144.936 99.3847 144.638 99.4645C144.341 99.5444 144.051 99.6597 143.769 99.8107C143.152 100.141 142.755 100.501 142.577 100.891C142.4 101.28 142.42 101.678 142.637 102.083C142.798 102.383 143.009 102.576 143.271 102.663C143.528 102.741 143.859 102.745 144.264 102.676C144.669 102.607 145.168 102.499 145.758 102.353C146.474 102.163 147.121 102.049 147.702 102.01C148.278 101.963 148.781 102.045 149.212 102.257C149.643 102.469 150.009 102.857 150.311 103.421C150.566 103.897 150.697 104.355 150.705 104.793C150.712 105.231 150.616 105.645 150.417 106.036C150.213 106.417 149.932 106.772 149.574 107.099C149.211 107.418 148.792 107.705 148.316 107.959C147.84 108.214 147.347 108.416 146.836 108.564C146.326 108.712 145.81 108.807 145.287 108.848C144.984 108.865 144.683 108.862 144.384 108.842C144.017 108.817 143.75 108.498 143.752 108.13L143.753 107.839C143.755 107.486 144.101 107.22 144.451 107.254C144.734 107.273 145.053 107.267 145.41 107.234C145.767 107.202 146.137 107.14 146.519 107.049C146.906 106.945 147.275 106.798 147.628 106.609C148.21 106.298 148.605 105.956 148.814 105.583C149.018 105.202 149.017 104.817 148.809 104.429C148.639 104.112 148.399 103.917 148.088 103.845C147.782 103.76 147.399 103.755 146.94 103.83C146.49 103.901 145.961 104.014 145.352 104.169C144.646 104.332 144.033 104.427 143.515 104.455C142.992 104.474 142.542 104.386 142.165 104.19C141.793 103.981 141.477 103.634 141.217 103.149C140.887 102.532 140.759 101.932 140.832 101.348C140.9 100.756 141.134 100.217 141.532 99.7317C141.934 99.2329 142.453 98.8137 143.088 98.474C143.52 98.2428 143.951 98.0743 144.382 97.9684C144.809 97.8537 145.227 97.7885 145.638 97.7726C145.848 97.7623 146.052 97.7623 146.249 97.7724C146.583 97.7894 146.824 98.0812 146.819 98.4157L146.813 98.8536Z" fill="#1F1F1F"/>
<path d="M84.0468 95.4279C84.2659 95.3107 84.5283 95.3075 84.7502 95.4194L88.9629 97.5439L89.5333 92.8572C89.563 92.6125 89.7101 92.3977 89.9275 92.2814C90.4696 91.9913 91.113 92.4345 91.0352 93.0444L90.3826 98.1623L94.8285 100.382C95.3786 100.656 95.3896 101.437 94.8475 101.728C94.6293 101.844 94.368 101.847 94.1473 101.735L90.1093 99.6865L89.5736 104.179C89.5441 104.427 89.3955 104.645 89.1756 104.762C88.6291 105.055 87.9803 104.609 88.0577 103.994L88.6764 99.0752L84.0671 96.7837C83.5121 96.5078 83.5003 95.7203 84.0468 95.4279Z" fill="#1F1F1F"/>
<path d="M93.1808 90.5406C93.3999 90.4234 93.6624 90.4202 93.8842 90.5321L98.097 92.6566L98.6673 87.9699C98.6971 87.7252 98.8442 87.5104 99.0615 87.3941C99.6036 87.104 100.247 87.5472 100.169 88.1571L99.5166 93.275L103.963 95.4945C104.513 95.7691 104.524 96.5502 103.982 96.8402C103.763 96.957 103.502 96.9598 103.281 96.8479L99.2434 94.7992L98.7077 99.2921C98.6781 99.5398 98.5295 99.7574 98.3097 99.8751C97.7632 100.167 97.1143 99.7214 97.1917 99.1064L97.8105 94.1879L93.2011 91.8964C92.6461 91.6205 92.6343 90.833 93.1808 90.5406Z" fill="#1F1F1F"/>
<path d="M102.315 85.6533C102.534 85.5361 102.796 85.5329 103.018 85.6448L107.231 87.7693L107.801 83.0826C107.831 82.8379 107.978 82.623 108.196 82.5067C108.738 82.2167 109.381 82.6599 109.303 83.2698L108.651 88.3877L113.097 90.6072C113.647 90.8818 113.658 91.6628 113.116 91.9529C112.897 92.0696 112.636 92.0725 112.415 91.9605L108.377 89.9118L107.842 94.4048C107.812 94.6525 107.664 94.8701 107.444 94.9877C106.897 95.2802 106.248 94.8341 106.326 94.2191L106.945 89.3005L102.335 87.0091C101.78 86.7332 101.768 85.9457 102.315 85.6533Z" fill="#1F1F1F"/>
<path d="M111.449 80.766C111.668 80.6488 111.93 80.6456 112.152 80.7575L116.365 82.882L116.935 78.1953C116.965 77.9506 117.112 77.7357 117.33 77.6194C117.872 77.3294 118.515 77.7726 118.437 78.3824L117.785 83.5003L122.231 85.7199C122.781 85.9945 122.792 86.7755 122.25 87.0656C122.031 87.1823 121.77 87.1852 121.549 87.0732L117.511 85.0245L116.976 89.5175C116.946 89.7651 116.798 89.9828 116.578 90.1004C116.031 90.3928 115.382 89.9467 115.46 89.3318L116.079 84.4132L111.469 82.1218C110.914 81.8459 110.902 81.0584 111.449 80.766Z" fill="#1F1F1F"/>
<path d="M131.732 81.6519C131.611 81.4266 131.699 81.1461 131.926 81.0292C132.148 80.915 132.421 81 132.538 81.2202L133.257 82.5626C133.376 82.7854 133.292 83.0626 133.069 83.1818C132.846 83.301 132.569 83.2171 132.45 82.9943L131.732 81.6519ZM131.743 80.9047C131.43 81.0923 131.023 80.9735 130.86 80.6468L127.479 73.8631C127.368 73.64 127.422 73.3699 127.61 73.2063C127.876 72.9746 128.289 73.0523 128.453 73.3649L131.975 80.0765C132.13 80.3706 132.027 80.734 131.743 80.9047ZM126.321 71.5408C126.202 71.318 126.286 71.0407 126.509 70.9215C126.732 70.8023 127.009 70.8863 127.128 71.1091L127.813 72.3885C127.921 72.591 127.863 72.8425 127.676 72.9763C127.451 73.1372 127.136 73.0638 127.006 72.8202L126.321 71.5408ZM130.975 72.6061C130.971 72.8734 130.687 73.0779 130.42 73.0648C130.191 73.0398 129.936 73.0402 129.655 73.0658C129.383 73.0868 129.098 73.1372 128.801 73.217C128.503 73.2968 128.213 73.4122 127.931 73.5632C127.314 73.8934 126.917 74.2534 126.74 74.643C126.562 75.0327 126.582 75.4303 126.799 75.8359C126.96 76.1356 127.171 76.3289 127.433 76.4156C127.69 76.4935 128.021 76.4977 128.426 76.4284C128.832 76.359 129.33 76.2513 129.921 76.1052C130.636 75.9154 131.283 75.8013 131.864 75.7629C132.44 75.7156 132.943 75.7979 133.374 76.0096C133.805 76.2214 134.171 76.6095 134.473 77.1738C134.728 77.6499 134.859 78.1071 134.867 78.5453C134.874 78.9835 134.779 79.3978 134.579 79.788C134.375 80.1695 134.094 80.524 133.736 80.8515C133.374 81.1702 132.954 81.457 132.478 81.7117C132.002 81.9665 131.509 82.1681 130.998 82.3164C130.488 82.4647 129.972 82.5595 129.449 82.6008C129.146 82.6171 128.845 82.6149 128.546 82.5943C128.179 82.5691 127.912 82.2508 127.914 81.8829L127.915 81.5912C127.917 81.2388 128.263 80.9726 128.613 81.0067C128.896 81.0257 129.215 81.0191 129.572 80.9868C129.929 80.9546 130.299 80.8929 130.681 80.8018C131.068 80.6972 131.437 80.5505 131.79 80.3618C132.372 80.0504 132.767 79.7084 132.976 79.3358C133.18 78.9543 133.179 78.5696 132.971 78.1817C132.801 77.8642 132.561 77.6696 132.25 77.5976C131.944 77.5122 131.561 77.5071 131.102 77.5824C130.652 77.653 130.123 77.7661 129.515 77.9216C128.808 78.0843 128.195 78.1796 127.677 78.2073C127.154 78.2263 126.704 78.1381 126.327 77.9427C125.955 77.7338 125.639 77.3868 125.379 76.9019C125.049 76.2847 124.921 75.6843 124.994 75.1007C125.063 74.5082 125.296 73.9694 125.694 73.4841C126.096 72.9853 126.615 72.5661 127.25 72.2264C127.682 71.9953 128.113 71.8267 128.544 71.7209C128.971 71.6062 129.389 71.5409 129.801 71.525C130.01 71.5148 130.214 71.5147 130.411 71.5248C130.746 71.5419 130.986 71.8337 130.981 72.1682L130.975 72.6061Z" fill="#1F1F1F"/>
<path d="M195.09 274.944C195.327 275.019 195.513 275.204 195.589 275.44L197.026 279.934L200.769 277.057C200.964 276.907 201.22 276.861 201.456 276.934C202.042 277.118 202.177 277.887 201.688 278.259L197.579 281.38L199.112 286.107C199.301 286.692 198.752 287.247 198.165 287.064C197.929 286.99 197.744 286.806 197.669 286.57L196.3 282.254L192.72 285.02C192.523 285.173 192.263 285.219 192.025 285.145C191.434 284.96 191.297 284.184 191.79 283.808L195.732 280.803L194.137 275.909C193.945 275.32 194.498 274.76 195.09 274.944Z" fill="#1F1F1F"/>
<path d="M204.977 278.035C205.214 278.11 205.401 278.295 205.476 278.531L206.913 283.025L210.656 280.148C210.851 279.997 211.108 279.952 211.343 280.025C211.93 280.209 212.065 280.978 211.575 281.35L207.467 284.471L208.999 289.198C209.189 289.783 208.639 290.338 208.052 290.155C207.816 290.081 207.631 289.897 207.556 289.661L206.188 285.345L202.607 288.111C202.41 288.263 202.151 288.31 201.913 288.236C201.321 288.051 201.185 287.275 201.678 286.899L205.62 283.894L204.024 279C203.832 278.411 204.386 277.85 204.977 278.035Z" fill="#1F1F1F"/>
<path d="M214.865 281.126C215.102 281.2 215.288 281.385 215.364 281.622L216.801 286.116L220.544 283.239C220.739 283.088 220.995 283.043 221.231 283.116C221.817 283.3 221.952 284.069 221.463 284.441L217.354 287.562L218.887 292.289C219.076 292.874 218.527 293.429 217.94 293.246C217.704 293.172 217.519 292.988 217.444 292.752L216.075 288.435L212.495 291.202C212.298 291.354 212.038 291.401 211.8 291.327C211.209 291.142 211.072 290.366 211.565 289.99L215.507 286.985L213.912 282.091C213.72 281.502 214.273 280.941 214.865 281.126Z" fill="#1F1F1F"/>
<path d="M224.752 284.217C224.989 284.291 225.176 284.476 225.251 284.713L226.688 289.207L230.431 286.33C230.626 286.179 230.883 286.134 231.118 286.207C231.705 286.391 231.84 287.16 231.35 287.532L227.242 290.653L228.774 295.38C228.964 295.965 228.414 296.52 227.827 296.337C227.591 296.263 227.406 296.079 227.331 295.843L225.963 291.526L222.382 294.293C222.185 294.445 221.926 294.492 221.688 294.417C221.096 294.233 220.96 293.457 221.453 293.081L225.395 290.076L223.799 285.182C223.607 284.593 224.161 284.032 224.752 284.217Z" fill="#1F1F1F"/>
<path d="M238.334 299.307C238.411 299.063 238.672 298.929 238.915 299.009C239.152 299.088 239.282 299.342 239.208 299.58L238.753 301.033C238.678 301.274 238.421 301.409 238.18 301.333C237.939 301.258 237.805 301.001 237.88 300.76L238.334 299.307ZM238.875 298.791C238.522 298.699 238.322 298.326 238.441 297.981L240.911 290.815C240.992 290.58 241.222 290.429 241.471 290.448C241.823 290.476 242.057 290.825 241.949 291.161L239.629 298.377C239.527 298.693 239.196 298.875 238.875 298.791ZM241.756 288.362C241.831 288.121 242.088 287.986 242.329 288.062C242.57 288.137 242.705 288.394 242.629 288.635L242.196 290.02C242.128 290.239 241.907 290.373 241.681 290.334C241.409 290.287 241.24 290.011 241.323 289.747L241.756 288.362ZM244.257 292.428C244.063 292.613 243.719 292.554 243.541 292.354C243.399 292.173 243.22 291.991 243.004 291.809C242.798 291.629 242.563 291.461 242.297 291.305C242.032 291.149 241.746 291.023 241.441 290.927C240.773 290.718 240.238 290.687 239.836 290.834C239.434 290.981 239.164 291.274 239.027 291.713C238.925 292.037 238.935 292.323 239.057 292.571C239.182 292.809 239.411 293.048 239.744 293.289C240.078 293.529 240.504 293.809 241.022 294.128C241.658 294.505 242.194 294.887 242.628 295.274C243.065 295.652 243.359 296.069 243.51 296.525C243.661 296.98 243.641 297.514 243.45 298.125C243.289 298.64 243.055 299.054 242.748 299.367C242.44 299.679 242.078 299.901 241.659 300.032C241.244 300.154 240.794 300.202 240.31 300.176C239.829 300.141 239.33 300.043 238.815 299.882C238.299 299.72 237.81 299.51 237.346 299.25C236.883 298.99 236.453 298.688 236.058 298.344C235.834 298.139 235.625 297.923 235.429 297.695C235.19 297.415 235.23 297.002 235.494 296.745L235.703 296.542C235.956 296.296 236.388 296.356 236.609 296.63C236.794 296.845 237.022 297.069 237.296 297.301C237.569 297.533 237.872 297.753 238.205 297.962C238.55 298.164 238.914 298.325 239.295 298.445C239.925 298.641 240.446 298.684 240.859 298.572C241.274 298.45 241.547 298.179 241.678 297.759C241.786 297.416 241.756 297.108 241.59 296.836C241.436 296.557 241.171 296.281 240.796 296.006C240.431 295.735 239.979 295.436 239.442 295.111C238.83 294.721 238.333 294.351 237.95 294.001C237.57 293.641 237.318 293.258 237.193 292.853C237.081 292.44 237.107 291.972 237.271 291.447C237.48 290.779 237.818 290.266 238.286 289.91C238.757 289.543 239.305 289.332 239.93 289.276C240.568 289.214 241.23 289.29 241.917 289.505C242.385 289.651 242.808 289.841 243.185 290.074C243.566 290.298 243.906 290.551 244.205 290.833C244.359 290.975 244.502 291.12 244.633 291.268C244.855 291.519 244.816 291.895 244.574 292.126L244.257 292.428Z" fill="#1F1F1F"/>
</svg>
