<svg width="108" height="120" viewBox="0 0 108 120" fill="none" xmlns="http://www.w3.org/2000/svg">
<path d="M54.0289 118.85C83.2469 118.85 106.933 95.1639 106.933 65.9459C106.933 36.7279 83.2469 13.042 54.0289 13.042C24.8109 13.042 1.125 36.7279 1.125 65.9459C1.125 95.1639 24.8109 118.85 54.0289 118.85Z" fill="#FB4903" stroke="#1F1F1F" stroke-width="2" stroke-miterlimit="10" stroke-linecap="round" stroke-linejoin="round"/>
<path d="M54.0297 107.936C77.2205 107.936 96.0203 89.1365 96.0203 65.9457C96.0203 42.7549 77.2205 23.9551 54.0297 23.9551C30.8389 23.9551 12.0391 42.7549 12.0391 65.9457C12.0391 89.1365 30.8389 107.936 54.0297 107.936Z" fill="#FB4903" stroke="#1F1F1F" stroke-width="2" stroke-miterlimit="10" stroke-linecap="round" stroke-linejoin="round"/>
<path d="M54.03 107.936C66.8662 107.936 78.3502 102.17 86.0527 93.0936L71.0163 81.8928C71.0163 81.8928 70.9653 83.5364 70.9653 76.916C70.9653 70.2955 73.3073 65.3584 73.3073 65.3584C75.3038 62.3474 76.3941 58.6869 76.3941 54.8033C76.3941 44.7446 68.5903 36.5142 58.7079 35.8211L58.717 35.7686H48.0522C47.9997 35.8804 33.3005 37.7809 33.4033 54.8033C33.4033 54.8033 32.9934 59.5579 30.6499 61.6671C28.3064 63.7763 27.4887 63.8432 27.5112 65.8285C27.5345 67.8791 30.0019 67.7605 30.0019 67.7605C30.0019 67.7605 33.1075 67.8679 33.1075 71.6868C33.1075 74.9126 32.8184 77.8974 32.8184 77.8974C32.8184 77.8974 32.1854 82.8464 37.416 82.5265C40.9579 82.3102 43.9299 82.4785 42.6992 82.5183C43.4576 82.6774 44.701 83.4989 45.4744 86.98C46.4994 91.5934 46.3822 89.8476 46.4994 91.5934L33.1721 102.385C39.3188 105.91 46.4356 107.936 54.03 107.936Z" fill="#FFD8D8" stroke="#1F1F1F" stroke-width="2" stroke-miterlimit="10" stroke-linecap="round" stroke-linejoin="round"/>
<path d="M86.0517 93.0939L71.0154 81.8931C71.0154 81.8931 71.0027 82.291 70.9906 81.9028L46.4992 91.5929L33.1719 102.385C39.3186 105.911 46.4354 107.937 54.0298 107.937C66.8653 107.937 78.3492 102.171 86.0517 93.0939Z" fill="#1F1F1F" stroke="#1F1F1F" stroke-width="2" stroke-miterlimit="10" stroke-linecap="round" stroke-linejoin="round"/>
<path d="M44.501 38.018C48.8478 34.8019 58.4823 34.9979 58.4823 34.9979C68.7829 35.7195 76.9172 44.2991 76.9172 54.7836C76.9172 58.8316 75.7811 62.6468 73.6997 65.7854C73.6997 65.7854 69.9978 70.0136 69.9978 76.915" stroke="white" stroke-width="2" stroke-miterlimit="10" stroke-linecap="round" stroke-linejoin="round"/>
<path d="M36.0339 41.7001C36.0391 41.7001 36.0434 41.6959 36.0434 41.6906C36.0434 41.6854 36.0391 41.6812 36.0339 41.6812C36.0287 41.6812 36.0244 41.6854 36.0244 41.6906C36.0244 41.6959 36.0287 41.7001 36.0339 41.7001Z" fill="white"/>
<path d="M33.7335 39.6219C33.8194 39.6219 33.889 39.5523 33.889 39.4665C33.889 39.3806 33.8194 39.311 33.7335 39.311C33.6477 39.311 33.5781 39.3806 33.5781 39.4665C33.5781 39.5523 33.6477 39.6219 33.7335 39.6219Z" fill="white"/>
<path d="M34.6725 35.889C34.6983 35.889 34.7191 35.8682 34.7191 35.8424C34.7191 35.8167 34.6983 35.7959 34.6725 35.7959C34.6468 35.7959 34.626 35.8167 34.626 35.8424C34.626 35.8682 34.6468 35.889 34.6725 35.889Z" fill="white"/>
<path d="M36.483 34.6825C36.5088 34.6825 36.5296 34.6616 36.5296 34.6359C36.5296 34.6102 36.5088 34.5894 36.483 34.5894C36.4573 34.5894 36.4365 34.6102 36.4365 34.6359C36.4365 34.6616 36.4573 34.6825 36.483 34.6825Z" fill="white"/>
<path d="M37.5593 41.7928C37.585 41.7928 37.6058 41.772 37.6058 41.7462C37.6058 41.7205 37.585 41.6997 37.5593 41.6997C37.5335 41.6997 37.5127 41.7205 37.5127 41.7462C37.5127 41.772 37.5335 41.7928 37.5593 41.7928Z" fill="white"/>
<path d="M65.8607 35.9916C71.1957 38.0205 76.2559 41.3957 78.7023 46.552C81.8815 53.2513 80.5734 61.2842 77.6705 68.1082C76.3355 71.2484 74.5559 74.3878 71.6583 76.1907C70.8053 76.7215 71.5058 77.8494 70.5229 77.6406L58.174 72.021C60.908 71.0231 62.2866 68.4416 63.4489 65.7737C64.2787 63.8695 64.9432 61.6874 64.1915 59.7509C63.4399 57.8144 60.6526 56.6633 59.2012 58.1486C58.5509 58.8138 58.3467 59.7817 57.9345 60.6152C57.5222 61.4487 56.661 62.2416 55.7659 61.9878C55.0646 61.7888 54.6719 61.0049 54.6569 60.2766C54.6426 59.5482 54.9137 58.8499 55.1239 58.1516C55.5377 56.7767 55.6804 55.1601 54.8101 54.018C53.7176 52.5838 51.6286 52.556 49.8783 52.1258C47.3673 51.5085 45.156 49.7658 43.9696 47.4681C43.1977 45.9731 42.8763 44.2611 43.0025 42.5844C41.9633 42.7826 40.8985 42.8907 39.8323 42.8907C38.7345 42.8907 37.6367 42.7856 36.5682 42.5761C35.6304 42.3914 34.2983 42.0295 33.5595 41.0218C33.0376 40.3107 32.8491 39.2955 33.0413 38.2368C33.5249 35.5832 35.9848 33.8299 38.2074 33.2697C40.846 32.6052 43.5574 33.1668 45.6253 33.7292C47.0362 34.1144 48.782 34.3262 50.3078 34.4952L53.1829 34.6025C53.1821 34.6018 62.8287 34.8375 65.8607 35.9916Z" fill="#1F1F1F" stroke="#1F1F1F" stroke-width="2" stroke-miterlimit="10" stroke-linecap="round" stroke-linejoin="round"/>
<path d="M39.7834 58.4018C39.7834 58.2171 39.7601 58.0392 39.7346 57.8665C39.7068 57.6825 39.685 57.5016 39.6317 57.3356C39.5746 57.1577 39.504 56.9887 39.4207 56.8378C39.3298 56.6726 39.2097 56.5359 39.0933 56.4113C38.9649 56.2739 38.832 56.1485 38.6796 56.0711C38.5174 55.9893 38.3379 55.9487 38.1577 55.9487C37.9768 55.9487 37.8033 56.0028 37.6411 56.0854C37.4879 56.1627 37.3543 56.2806 37.2259 56.4188C37.1095 56.5434 36.9879 56.6771 36.8978 56.8423C36.8152 56.9925 36.7378 57.1569 36.6808 57.3341C36.6274 57.5 36.6072 57.681 36.5794 57.865C36.5538 58.0384 36.5283 58.2171 36.5283 58.4026C36.5283 58.5873 36.5561 58.7653 36.5816 58.938C36.6087 59.122 36.6327 59.3022 36.686 59.4681C36.7431 59.6461 36.8234 59.809 36.9068 59.9599C36.9976 60.1251 37.0937 60.2798 37.2109 60.4045C37.3393 60.5419 37.4849 60.6545 37.6374 60.7318C37.7995 60.8137 37.9783 60.8347 38.1585 60.8347C38.3395 60.8347 38.5151 60.8062 38.6773 60.7236C38.8305 60.6462 38.9799 60.5404 39.1091 60.4022C39.2255 60.2775 39.3231 60.1236 39.4132 59.9584C39.4958 59.8082 39.5641 59.6423 39.6212 59.4651C39.6745 59.2992 39.7308 59.1257 39.7579 58.9425C39.7826 58.769 39.7834 58.5866 39.7834 58.4018Z" fill="#1F1F1F"/>
<path d="M33.8223 70.9714L39.0717 68.7188" stroke="#1F1F1F" stroke-width="2" stroke-miterlimit="10" stroke-linecap="round" stroke-linejoin="round"/>
<path d="M21.2285 77.7632C23.0119 82.2227 25.8742 86.2459 29.5032 89.3913" stroke="#1F1F1F" stroke-width="2" stroke-miterlimit="10" stroke-linecap="round" stroke-linejoin="round"/>
<path d="M58.397 2.5241C57.7886 0.701987 55.2113 0.701975 54.6029 2.5241L52.3372 9.31001H45.1316C43.1838 9.31001 42.3852 11.811 43.9725 12.9399L49.7881 17.0757L47.5516 23.7742C46.9386 25.6099 49.0305 27.1591 50.6077 26.0375L56.5 21.8471L62.3923 26.0375C63.9695 27.1591 66.0614 25.6099 65.4484 23.7742L63.2118 17.0757L69.0274 12.9399C70.6148 11.811 69.8161 9.31001 67.8684 9.31001L60.6628 9.31001L58.397 2.5241Z" fill="white" stroke="#1F1F1F" stroke-width="2"/>
</svg>
