<svg width="98" height="111" viewBox="0 0 98 111" fill="none" xmlns="http://www.w3.org/2000/svg">
<path d="M48.7258 109.452C75.0841 109.452 96.4517 88.0841 96.4517 61.7258C96.4517 35.3676 75.0841 14 48.7258 14C22.3676 14 1 35.3676 1 61.7258C1 88.0841 22.3676 109.452 48.7258 109.452Z" fill="#5C4BD6" stroke="#1F1F1F" stroke-width="2" stroke-miterlimit="10" stroke-linecap="round" stroke-linejoin="round"/>
<path d="M48.7268 99.6069C69.6479 99.6069 86.6078 82.6469 86.6078 61.7258C86.6078 40.8047 69.6479 23.8447 48.7268 23.8447C27.8057 23.8447 10.8457 40.8047 10.8457 61.7258C10.8457 82.6469 27.8057 99.6069 48.7268 99.6069Z" fill="#5C4BD6" stroke="#1F1F1F" stroke-width="2" stroke-miterlimit="10" stroke-linecap="round" stroke-linejoin="round"/>
<path d="M48.7262 99.6068C56.3175 99.6068 63.3818 97.3654 69.3085 93.5202C67.8818 92.4915 66.4994 91.3749 65.8409 89.7748C65.1982 88.2122 65.3408 86.3703 64.4871 84.9121C56.0983 86.35 47.8093 88.3706 39.7006 90.9552L39.6691 91.1872C39.0976 93.3768 39.2508 95.6872 38.9122 97.9248C38.8934 98.048 38.8633 98.1719 38.8408 98.295C41.993 99.1457 45.3052 99.6068 48.7262 99.6068Z" fill="#5C4BD6" stroke="#1F1F1F" stroke-width="2" stroke-miterlimit="10" stroke-linecap="round" stroke-linejoin="round"/>
<path d="M41.7463 90.707C41.4114 89.3059 41.0713 87.1396 40.7251 85.7407C40.3895 84.3846 40.0411 83.0105 39.3458 81.7994C38.6504 80.5882 37.5512 79.54 36.1913 79.2238C34.4651 78.8221 32.6892 79.6398 30.9172 79.5948C28.6795 79.5377 26.5628 77.9474 25.884 75.8149C25.3607 74.1712 25.6453 72.3961 25.643 70.6713C25.6407 68.9458 25.2203 67.0221 23.7808 66.0707C23.1035 65.6232 22.261 65.4392 21.6551 64.8993C20.5453 63.9112 20.6557 62.0805 21.3923 60.7905C22.1289 59.5005 23.3363 58.5597 24.3372 57.4626C26.8106 54.7512 28.0203 50.933 27.5608 47.292L37.5887 43.4678L59.6503 55.4751L63.3596 79.5873C63.3596 79.5873 62.9692 83.9904 63.3596 84.9125L41.7463 90.707Z" fill="#FFD8D8" stroke="#1F1F1F" stroke-width="2" stroke-miterlimit="10" stroke-linecap="round" stroke-linejoin="round"/>
<path d="M62.8651 82.4976C62.2569 80.7698 61.0847 79.2381 59.55 78.2349C57.7358 77.05 55.3292 76.4373 54.3591 74.5C53.3867 72.5567 54.3456 70.2673 54.8239 68.1468C55.3293 65.9047 55.2699 63.5507 54.7661 61.3086C54.5175 60.2003 54.1474 59.0897 53.4355 58.2044C52.7237 57.3192 51.6162 56.6899 50.4853 56.792C48.9656 56.9295 47.8768 58.2503 46.8421 59.3713C45.8074 60.4931 44.3334 61.5864 42.8849 61.1066C42.2069 60.8821 41.6813 60.3437 41.2405 59.7805C38.674 56.5015 38.1965 52.0142 38.6913 47.8791C34.9144 47.5908 31.13 47.4121 27.3425 47.3437L28.8593 47.373C27.8539 47.3543 26.8485 47.3355 25.8423 47.3167C25.4999 47.31 25.1049 47.2777 24.9059 46.9991C24.7257 46.7468 24.788 46.4006 24.8669 46.101C26.1531 41.2173 30.0359 37.2459 34.6568 35.2066C39.277 33.1672 44.5497 32.9194 49.5205 33.8107C54.4845 34.7005 59.2451 36.6993 63.3659 39.6074C65.3865 41.0334 67.2622 42.6838 68.812 44.6121C71.2824 47.6862 72.8578 51.379 74.1478 55.1056C76.2172 61.0871 77.6288 67.5942 76.0325 73.7183C75.654 75.169 75.1014 76.595 74.2108 77.8009C71.7607 81.1175 66.9799 82.2693 62.8651 82.4976Z" fill="#1F1F1F" stroke="#1F1F1F" stroke-width="2" stroke-miterlimit="10" stroke-linecap="round" stroke-linejoin="round"/>
<path d="M33.1047 58.2505C33.1047 58.0658 33.0814 57.8878 33.0559 57.7151C33.0288 57.5311 33.0063 57.3502 32.953 57.1842C32.8959 57.0063 32.8253 56.8373 32.742 56.6864C32.6511 56.5212 32.531 56.3845 32.4146 56.2599C32.2862 56.1225 32.1533 55.9971 32.0009 55.9198C31.8387 55.8379 31.6592 55.7974 31.479 55.7974C31.298 55.7974 31.1253 55.8514 30.9624 55.934C30.8092 56.0114 30.6756 56.1293 30.5472 56.2674C30.4308 56.3921 30.3092 56.5257 30.219 56.6909C30.1364 56.8411 30.0591 57.0055 30.002 57.1827C29.9487 57.3487 29.9284 57.5296 29.9007 57.7136C29.8751 57.8871 29.8496 58.0658 29.8496 58.2512C29.8496 58.436 29.8774 58.6139 29.9029 58.7866C29.9307 58.9706 29.954 59.1508 30.0073 59.3167C30.0644 59.4947 30.1447 59.6576 30.2281 59.8086C30.3189 59.9738 30.415 60.1284 30.5322 60.2531C30.6613 60.3905 30.8062 60.5031 30.9586 60.5805C31.1208 60.6623 31.2996 60.6833 31.4798 60.6833C31.6607 60.6833 31.8364 60.6548 31.9986 60.5722C32.1518 60.4949 32.3012 60.389 32.4304 60.2508C32.5468 60.1262 32.6444 59.9722 32.7345 59.8071C32.8171 59.6569 32.8854 59.4909 32.9425 59.3137C32.9958 59.1478 33.0521 58.9743 33.0792 58.7911C33.1039 58.6177 33.1047 58.4352 33.1047 58.2505Z" fill="#1F1F1F"/>
<path d="M73.1123 41.8882C75.7944 45.1019 77.8962 48.7985 79.2853 52.7474" stroke="#1F1F1F" stroke-width="2" stroke-miterlimit="10" stroke-linecap="round" stroke-linejoin="round"/>
<path d="M50.397 2.5241C49.7886 0.701987 47.2113 0.701975 46.6029 2.5241L44.3372 9.31001H37.1316C35.1838 9.31001 34.3852 11.811 35.9725 12.9399L41.7881 17.0757L39.5516 23.7742C38.9386 25.6099 41.0305 27.1591 42.6077 26.0375L48.5 21.8471L54.3923 26.0375C55.9695 27.1591 58.0614 25.6099 57.4484 23.7742L55.2118 17.0757L61.0274 12.9399C62.6148 11.811 61.8161 9.31001 59.8684 9.31001L52.6628 9.31001L50.397 2.5241Z" fill="white" stroke="#1F1F1F" stroke-width="2"/>
</svg>
