<svg width="480" height="555" viewBox="0 0 480 555" fill="none" xmlns="http://www.w3.org/2000/svg">
<path d="M111.148 430.591L152.757 448.729L194.359 466.841L218.07 399.467L241.755 332.113H315.208L315.139 298.36L315.075 264.601L254.565 264.671L194.049 264.734C186.179 264.743 178.509 267.219 172.119 271.813C165.729 276.407 160.94 282.889 158.425 290.347C150.543 313.717 142.664 337.099 134.79 360.495L111.148 430.591Z" fill="#5C4BD6" stroke="#1F1F1F" stroke-width="2.03848" stroke-miterlimit="10" stroke-linecap="round"/>
<path d="M130.651 276.685L98.1178 407.93L65.5908 539.175" stroke="#1F1F1F" stroke-width="2.03848" stroke-miterlimit="10" stroke-linecap="round"/>
<path d="M219.966 435.37L211.416 376.648C208.576 357.078 205.738 337.5 202.903 317.914C201.089 305.534 202.271 294.127 205.646 285.052C209.02 275.977 214.676 269.253 221.862 266.162C223.815 265.337 225.871 264.775 227.973 264.494C231.102 264.092 234.275 264.181 237.376 264.76H403.658C403.904 266.687 404.182 269.126 404.41 271.989C404.637 274.852 404.808 278.138 404.852 281.759C404.959 291.333 405.086 301.653 403.436 311.265C401.787 320.877 398.381 329.788 391.429 336.544C389.597 338.314 387.58 339.882 385.413 341.22C382.042 343.281 378.403 344.87 374.6 345.941C372.638 346.507 370.641 346.942 368.622 347.243C366.601 347.545 364.565 347.731 362.523 347.799L332.96 348.804L303.385 349.809L306.911 389.856L310.437 429.897L265.208 432.633L219.966 435.37Z" fill="#5C4BD6" stroke="#1F1F1F" stroke-width="2.03848" stroke-miterlimit="10" stroke-linecap="round"/>
<path d="M415.242 276.684H78.7236C78.4341 276.689 78.1467 276.635 77.8781 276.527C77.6095 276.419 77.3651 276.258 77.1592 276.055C76.9533 275.851 76.79 275.609 76.6788 275.341C76.5677 275.074 76.5109 274.787 76.5117 274.498V266.952C76.5117 266.372 76.7419 265.815 77.1518 265.404C77.5617 264.993 78.1178 264.761 78.6983 264.759H415.242C415.822 264.761 416.378 264.993 416.788 265.404C417.198 265.815 417.428 266.372 417.428 266.952V274.498C417.429 274.785 417.373 275.07 417.264 275.336C417.154 275.601 416.993 275.843 416.79 276.046C416.587 276.249 416.345 276.41 416.08 276.52C415.814 276.629 415.529 276.685 415.242 276.684Z" fill="#3AE794" stroke="#1F1F1F" stroke-width="2.03848" stroke-miterlimit="10" stroke-linecap="round"/>
<path d="M330.881 65.2941C343.912 64.3209 357.385 64.2767 370.498 66.1536C383.611 68.0305 396.345 71.8412 407.891 78.5021C418.559 84.6826 426.983 93.2583 433.934 103.035C440.886 112.811 446.365 123.776 451.124 134.746C457.273 148.89 465.785 165.024 471.662 181.625C477.539 198.227 480.769 215.302 476.351 231.322C472.648 244.745 463.504 253.106 452.217 258.111C440.93 263.116 427.495 264.759 415.241 264.759H167.052C166.145 256.64 164.039 248.701 160.802 241.2C155.443 228.826 145.635 215.29 127.763 210.518L139.189 206.727L164.353 198.473L191.774 189.417L200.912 186.396C200.912 186.396 201.544 180.323 202.517 172.449C203.49 164.575 204.881 154.9 206.416 147.708C208.256 138.73 210.968 129.952 214.512 121.501C218.771 111.572 224.907 101.088 233.907 91.9565C241.288 84.4678 250.597 80.1009 260.518 77.1497C270.44 74.1984 280.969 72.6564 290.802 70.8301C297.178 69.6483 303.776 68.5234 310.487 67.5692C317.199 66.6149 324.011 65.806 330.881 65.2941Z" fill="#5C4BD6" stroke="#1F1F1F" stroke-width="2.03848" stroke-miterlimit="10" stroke-linecap="round"/>
<path d="M291.858 110.429L275.377 187.585L258.901 264.741L286.986 264.671L315.076 264.602L303.739 187.503L292.395 110.404C292.389 110.339 292.359 110.28 292.311 110.236C292.263 110.193 292.201 110.169 292.136 110.17C292.101 110.168 292.065 110.173 292.032 110.186C291.999 110.198 291.968 110.217 291.942 110.241C291.917 110.265 291.896 110.294 291.881 110.326C291.867 110.359 291.859 110.393 291.858 110.429Z" fill="#FFF8F8" stroke="#1F1F1F" stroke-width="2.03848" stroke-miterlimit="10" stroke-linecap="round"/>
<path d="M127.764 210.519C114.24 212.623 102.208 216.895 92.5449 222.526C82.8823 228.157 75.6147 235.165 71.6144 242.748C69.5785 246.839 68.0199 251.15 66.9695 255.596C65.9837 259.514 65.5287 262.504 65.4718 262.921C64.853 266.662 64.5297 270.447 64.5049 274.239C64.5681 278.442 65.3707 282.328 67.9238 283.63C68.462 283.897 69.049 284.052 69.649 284.085C70.1634 284.11 70.6789 284.074 71.1847 283.977C71.2313 285.695 71.9058 287.337 73.0806 288.591C74.1691 289.78 75.6747 290.502 77.2831 290.607C78.5799 290.665 79.8617 290.309 80.9421 289.589C82.0804 288.843 82.9747 287.78 83.5142 286.531C83.9342 287.625 84.6103 288.602 85.4859 289.381C86.2947 290.108 87.3027 290.577 88.3803 290.727C89.1509 290.797 89.9278 290.713 90.6657 290.48C91.4035 290.247 92.0874 289.869 92.6776 289.368C94.0475 288.233 94.9719 286.651 95.2876 284.9C95.2906 284.882 95.2999 284.866 95.3138 284.855C95.3277 284.843 95.3453 284.837 95.3634 284.837C95.3726 284.836 95.3818 284.837 95.3906 284.84C95.3993 284.842 95.4075 284.847 95.4145 284.853C95.4216 284.859 95.4274 284.866 95.4317 284.874C95.4359 284.882 95.4385 284.891 95.4393 284.9C95.7243 286.375 96.4009 287.746 97.3983 288.869C98.2022 289.817 99.3271 290.436 100.558 290.607C102.094 290.752 103.813 289.937 105.108 288.452C105.83 287.598 106.374 286.609 106.708 285.542C107.043 284.475 107.16 283.353 107.055 282.24L107.434 275.212L107.813 268.179C107.865 267.255 108.268 266.386 108.94 265.75C109.613 265.114 110.503 264.76 111.428 264.76H167.04C166.067 256.535 163.906 248.495 160.626 240.891C155.229 228.416 145.396 214.854 127.764 210.519Z" fill="#FFD8D8" stroke="#1F1F1F" stroke-width="2.03848" stroke-miterlimit="10" stroke-linecap="round"/>
<path d="M323.076 264.759H268.096C268.097 256.672 271.311 248.916 277.031 243.198C282.75 237.479 290.506 234.267 298.594 234.267H323.076C325.078 234.266 327.061 234.66 328.911 235.426C330.761 236.191 332.442 237.314 333.859 238.729C335.275 240.145 336.398 241.826 337.164 243.675C337.931 245.525 338.325 247.508 338.325 249.51C338.326 251.513 337.932 253.496 337.166 255.347C336.4 257.197 335.277 258.878 333.861 260.295C332.445 261.711 330.763 262.834 328.913 263.6C327.062 264.366 325.079 264.76 323.076 264.759Z" fill="#FB4903" stroke="#1F1F1F" stroke-width="2.03848" stroke-miterlimit="10" stroke-linecap="round"/>
<path d="M296.434 234.267C299.012 236.583 301.153 239.345 302.753 242.419C305.54 247.677 307.6 255.305 304.712 264.759" stroke="#1F1F1F" stroke-width="2.03848" stroke-miterlimit="10" stroke-linecap="round"/>
<path d="M143.378 242.11L127.068 248.606L110.763 255.103C109.275 255.816 108.092 257.037 107.426 258.547C107.143 259.146 106.994 259.799 106.988 260.462C106.983 261.124 107.122 261.78 107.395 262.383C107.899 263.287 108.718 263.975 109.695 264.317C110.25 264.542 110.832 264.691 111.427 264.759" stroke="#1F1F1F" stroke-width="2.03848" stroke-miterlimit="10" stroke-linecap="round"/>
<path d="M185.765 495.621C186.839 490.913 188.627 485.118 190.732 478.438C192.836 471.758 195.244 464.193 197.57 455.934C197.846 455.089 198.039 454.219 198.145 453.336C198.294 452 198.224 450.649 197.936 449.336C197.675 448.186 197.206 447.094 196.552 446.113C195.906 445.122 195.076 444.263 194.106 443.585C191.389 441.75 188.477 440.222 185.423 439.029C182.58 437.872 179.97 437.032 178.162 436.381C175.793 435.475 173.37 434.718 170.907 434.112C167.988 433.43 164.992 433.137 161.997 433.24C159.888 433.314 157.79 433.576 155.728 434.024C154.156 434.363 152.608 434.806 151.095 435.351C151.095 435.351 154.205 430.504 154.805 425.17C155.405 419.836 153.478 413.997 143.43 412.031L132.686 410.136L121.943 408.24C121.062 408.085 120.159 408.106 119.286 408.302C118.413 408.497 117.587 408.862 116.856 409.377C116.124 409.892 115.502 410.546 115.024 411.302C114.545 412.058 114.221 412.901 114.069 413.782L112.596 422.187L111.149 430.573C110.753 432.969 109.669 435.198 108.027 436.987C105.291 439.983 100.191 442.542 90.7559 440.823L73.6361 436.842L56.5163 432.867C53.7104 432.235 50.9108 431.534 48.1176 430.839C45.3243 430.143 42.5311 429.423 39.7441 428.696C34.8591 427.432 26.4351 425.802 18.7883 427.129C11.1416 428.456 4.25329 432.722 2.46484 443.231L85.1567 493.51L167.842 543.789C173.896 532.413 178.377 520.406 181.347 511.18C184.317 501.953 185.765 495.621 185.765 495.621Z" fill="#3AE794" stroke="#1F1F1F" stroke-width="2.03848" stroke-miterlimit="10" stroke-linecap="round"/>
<path d="M151.082 435.369C148.254 438.575 145.136 441.514 141.767 444.147C136.2 448.501 128.8 452.786 121.481 452.514" stroke="#1F1F1F" stroke-width="2.03848" stroke-miterlimit="10" stroke-linecap="round"/>
<path d="M100.456 441.039L104.368 447.99L108.286 454.942" stroke="#1F1F1F" stroke-width="2.03848" stroke-miterlimit="10" stroke-linecap="round"/>
<path d="M80.208 438.618L83.1403 445.816C84.1135 448.217 85.0888 450.616 86.0663 453.014" stroke="#1F1F1F" stroke-width="2.03848" stroke-miterlimit="10" stroke-linecap="round"/>
<path d="M62.7725 434.668L65.5215 442.65L68.2958 450.625" stroke="#1F1F1F" stroke-width="2.03848" stroke-miterlimit="10" stroke-linecap="round"/>
<path d="M167.684 456.735C166.751 457.92 165.437 458.744 163.964 459.067C162.492 459.391 160.953 459.194 159.609 458.509C158.266 457.825 157.202 456.697 156.597 455.315C155.993 453.934 155.886 452.386 156.295 450.935C156.704 449.484 157.604 448.22 158.841 447.358C160.078 446.496 161.575 446.09 163.078 446.208C164.581 446.326 165.996 446.962 167.083 448.007C168.169 449.052 168.86 450.442 169.037 451.939C169.138 452.788 169.071 453.649 168.839 454.472C168.607 455.295 168.214 456.064 167.684 456.735Z" fill="#3AE794" stroke="#1F1F1F" stroke-width="2.03848" stroke-miterlimit="10" stroke-linecap="round"/>
<path d="M167.981 544.053L85.3586 493.509L2.71731 442.953C1.49689 447.737 1.84035 452.786 3.69739 457.361C5.55443 461.936 8.82747 465.796 13.0372 468.376L43.7946 487.278L74.5711 506.142C76.4704 507.302 78.487 508.257 80.5873 508.992C82.6889 509.722 84.8626 510.224 87.0712 510.49L89.0745 510.73L91.0778 510.97C91.3348 511.001 91.5808 511.093 91.7952 511.238C92.0095 511.383 92.1861 511.577 92.3102 511.805C92.4356 512.029 92.5051 512.281 92.5128 512.539C92.5205 512.796 92.4662 513.051 92.3544 513.283C91.9741 514.079 91.9018 514.988 92.1515 515.834C92.4012 516.68 92.9552 517.403 93.7068 517.865L107.92 526.573L122.126 535.282C122.787 535.689 123.558 535.883 124.333 535.838C125.109 535.792 125.851 535.51 126.461 535.029L127.049 534.568L127.637 534.106C127.776 533.995 127.945 533.925 128.122 533.906C128.3 533.887 128.48 533.918 128.64 533.997C128.8 534.076 128.935 534.199 129.028 534.351C129.121 534.504 129.169 534.68 129.166 534.858L128.964 536.325L128.755 537.791C128.696 538.215 128.762 538.647 128.945 539.035C129.128 539.422 129.42 539.747 129.785 539.971L132.718 541.772L135.656 543.567C136.04 543.809 136.49 543.925 136.943 543.899C137.397 543.873 137.83 543.706 138.184 543.422L139.277 542.562L140.371 541.703C140.51 541.59 140.679 541.521 140.857 541.501C141.035 541.482 141.215 541.515 141.375 541.595C141.536 541.674 141.671 541.796 141.765 541.948C141.859 542.1 141.908 542.276 141.906 542.455L141.774 543.384L141.647 544.313C141.534 545.109 141.657 545.922 142.001 546.65C142.345 547.377 142.894 547.989 143.581 548.408L145.629 549.672L147.676 550.936C149.42 552.006 151.377 552.68 153.41 552.911C155.443 553.142 157.501 552.923 159.44 552.271C161.379 551.619 163.152 550.549 164.632 549.137C166.112 547.724 167.264 546.004 168.006 544.098L167.981 544.053Z" fill="#FB4903" stroke="#1F1F1F" stroke-width="2.03848" stroke-miterlimit="10" stroke-linecap="round"/>
<path d="M99.3629 249.997C98.731 253.075 98.099 256.317 97.5492 259.761C96.9994 263.205 96.5507 266.795 96.1968 270.561C95.9609 273.089 95.7818 275.551 95.6596 277.949C95.5375 280.346 95.4638 282.663 95.4385 284.9" stroke="#1F1F1F" stroke-width="2.03848" stroke-miterlimit="10" stroke-linecap="round"/>
<path d="M83.5137 286.53C83.5516 282.239 83.7349 277.74 84.1014 273.057C84.4679 268.374 85.0241 263.521 85.8014 258.522C86.0415 256.986 86.3006 255.476 86.566 253.984C86.8315 252.493 87.1158 251.033 87.4129 249.592" stroke="#1F1F1F" stroke-width="2.03848" stroke-miterlimit="10" stroke-linecap="round"/>
<path d="M76.2144 249.27C75.7931 250.871 75.3908 252.51 75.0074 254.187C74.624 255.863 74.2617 257.587 73.9204 259.356C73.0547 263.818 72.429 268.121 71.9866 272.235C71.5443 276.349 71.2915 280.274 71.1777 283.977" stroke="#1F1F1F" stroke-width="2.03848" stroke-miterlimit="10" stroke-linecap="round"/>
<path d="M368.331 264.759L341.707 264.684L315.076 264.601C312.422 264.601 309.755 264.658 307.088 264.703C304.421 264.747 301.754 264.785 299.1 264.703C297.228 264.686 295.392 264.183 293.773 263.243C292.962 262.772 292.283 262.106 291.798 261.304C291.313 260.502 291.038 259.591 290.998 258.655C290.952 257.59 291.208 256.534 291.738 255.609C292.258 254.679 292.974 253.872 293.836 253.245C295.215 252.345 296.805 251.82 298.449 251.722C300.117 251.533 301.849 251.52 303.404 251.261C304.575 251.067 305.738 250.837 306.892 250.572C308.048 250.3 309.199 249.997 310.33 249.643C312.997 248.853 315.564 247.754 317.977 246.369C320.396 244.994 322.489 243.112 324.113 240.852C324.666 240.059 325.138 239.212 325.522 238.325C325.908 237.435 326.201 236.507 326.394 235.557C326.651 234.314 326.631 233.031 326.337 231.796C326.049 230.567 325.458 229.428 324.618 228.485L324.334 228.188C324.233 228.087 324.138 227.998 324.043 227.916C321.56 225.654 317.623 224.94 312.915 225.692C308.206 226.444 302.721 228.662 297.116 232.258L295.852 233.06C295.43 233.326 295.009 233.585 294.588 233.838L285.254 239.317L275.913 244.796C275.654 244.948 275.389 245.112 275.13 245.276C274.871 245.44 274.612 245.605 274.352 245.769C272.293 247.151 269.965 248.084 267.521 248.505C265.486 248.784 263.78 248.43 262.686 247.419C262.303 247.061 261.994 246.632 261.776 246.155C261.645 245.866 261.544 245.566 261.473 245.257C261.039 243.797 261.135 242.23 261.745 240.833C262.421 239.437 263.805 238.091 266.238 236.707C271.749 233.231 277.759 229.439 283.794 225.685C289.829 221.932 295.801 218.134 301.293 214.696L299.321 214.007L297.349 213.324L296.781 215.606L296.212 217.881L280.463 227.777L264.683 237.655C265.107 235.209 265.568 232.978 266.03 230.988C266.491 228.997 266.952 227.246 267.369 225.768C268.867 220.428 270.125 216.029 271.717 212.635C273.31 209.242 275.237 206.866 278.068 205.576C279.14 205.091 280.281 204.778 281.449 204.648C282.345 204.545 283.249 204.532 284.148 204.61C284.652 203.77 285.225 202.973 285.86 202.227C286.691 201.257 287.633 200.387 288.666 199.636C290.901 198.049 293.489 197.03 296.206 196.666C298.42 196.37 300.662 196.332 302.885 196.552C311.006 197.184 319.948 198.353 327.228 199.415C334.509 200.477 340.12 201.437 341.568 201.684C343.658 202.841 345.668 204.137 347.584 205.564C349.662 207.114 351.614 208.826 353.423 210.683C362.858 220.358 366.789 232.34 368.262 242.666C369.269 249.995 369.293 257.425 368.331 264.759Z" fill="#FFD8D8" stroke="#1F1F1F" stroke-width="2.03848" stroke-miterlimit="10" stroke-linecap="round"/>
<path d="M381.88 149.781L389.091 168.082L396.301 186.384L368.931 194.043L341.567 201.696" stroke="#1F1F1F" stroke-width="2.03848" stroke-miterlimit="10" stroke-linecap="round"/>
<path d="M193.507 79.1779C191.56 81.1244 188.343 81.434 184.722 80.3597C181.101 79.2854 177.069 76.8334 173.486 73.2502C169.903 69.667 167.445 65.6667 166.37 62.0139C165.296 58.3612 165.606 55.1761 167.552 53.2297C169.498 51.2833 172.709 50.9736 176.336 52.0479C179.964 53.1223 183.989 55.5743 187.572 59.1575C191.156 62.7407 193.614 66.7789 194.682 70.4C195.75 74.0212 195.447 77.2378 193.507 79.1779Z" fill="#5C4BD6" stroke="#1F1F1F" stroke-width="2.03848" stroke-miterlimit="10" stroke-linecap="round"/>
<path d="M190.751 81.5988C189.158 83.2115 187.12 84.3118 184.899 84.7585C182.682 85.2089 180.382 84.9753 178.301 84.0887C176.558 83.3461 174.891 82.4382 173.321 81.3776C171.473 80.1336 169.777 78.6787 168.265 77.0423C166.775 75.4117 165.474 73.6182 164.385 71.696C163.446 70.042 162.651 68.3103 162.009 66.5202C161.393 64.7985 161.287 62.9351 161.706 61.1549C162.122 59.3708 163.03 57.7394 164.328 56.4468L165.864 54.9048L167.406 53.3691C167.21 53.6204 167.03 53.8843 166.869 54.1591C166.655 54.5191 166.469 54.8952 166.313 55.284C164.853 58.9809 166.496 63.1898 168.6 66.5708C170.045 68.8591 171.741 70.9788 173.656 72.8904C176.395 75.5482 179.55 77.7406 182.996 79.3806C186.441 80.9478 189.872 81.5545 192.311 80.0947C192.531 79.9532 192.742 79.7992 192.943 79.6334C193.165 79.4627 193.367 79.2921 193.462 79.2099L192.16 80.3917L190.751 81.5988Z" fill="#5C4BD6" stroke="#1F1F1F" stroke-width="2.03848" stroke-miterlimit="10" stroke-linecap="round"/>
<path d="M164.613 72.0181L167.015 69.8758L169.416 67.7397" stroke="#1F1F1F" stroke-width="2.03848" stroke-miterlimit="10" stroke-linecap="round"/>
<path d="M168.84 76.9724L170.906 75.1271L172.973 73.2881" stroke="#1F1F1F" stroke-width="2.03848" stroke-miterlimit="10" stroke-linecap="round"/>
<path d="M182.623 79.1528L180.379 81.232L178.136 83.3111" stroke="#1F1F1F" stroke-width="2.03848" stroke-miterlimit="10" stroke-linecap="round"/>
<path d="M442.227 172.683C444.167 174.623 444.477 177.84 443.403 181.461C442.328 185.082 439.889 189.121 436.293 192.704C432.697 196.287 428.71 198.739 425.057 199.813C421.404 200.888 418.219 200.578 416.273 198.632C414.326 196.685 414.017 193.475 415.091 189.847C416.165 186.22 418.624 182.194 422.207 178.611C425.79 175.028 429.822 172.576 433.443 171.502C437.064 170.427 440.281 170.737 442.227 172.683Z" fill="#3AE794" stroke="#1F1F1F" stroke-width="2.03848" stroke-miterlimit="10" stroke-linecap="round"/>
<path d="M444.64 175.432C446.252 177.027 447.352 179.067 447.8 181.29C448.248 183.505 448.012 185.804 447.124 187.881C446.381 189.624 445.473 191.292 444.413 192.861C443.169 194.709 441.714 196.405 440.077 197.917C438.449 199.409 436.655 200.711 434.731 201.797C433.077 202.736 431.345 203.531 429.555 204.173C427.834 204.792 425.97 204.897 424.19 204.476C422.407 204.06 420.777 203.154 419.482 201.86L417.94 200.318L416.404 198.776C416.658 198.969 416.921 199.149 417.194 199.313C417.554 199.527 417.93 199.713 418.319 199.869C422.016 201.329 426.225 199.693 429.606 197.582C431.892 196.134 434.012 194.439 435.925 192.526C438.587 189.773 440.779 186.603 442.416 183.142C443.983 179.704 444.59 176.266 443.13 173.826C442.987 173.608 442.833 173.397 442.669 173.195C442.498 172.973 442.327 172.771 442.251 172.683L443.458 174.054L444.64 175.432Z" fill="#3AE794" stroke="#1F1F1F" stroke-width="2.03848" stroke-miterlimit="10" stroke-linecap="round"/>
<path d="M435.06 201.57L432.924 199.168L430.781 196.773" stroke="#1F1F1F" stroke-width="2.03848" stroke-miterlimit="10" stroke-linecap="round"/>
<path d="M440.014 197.342L438.175 195.275L436.33 193.209" stroke="#1F1F1F" stroke-width="2.03848" stroke-miterlimit="10" stroke-linecap="round"/>
<path d="M442.195 183.559L444.274 185.803L446.354 188.046" stroke="#1F1F1F" stroke-width="2.03848" stroke-miterlimit="10" stroke-linecap="round"/>
<path d="M303.385 349.808L302.734 340.961L302.083 332.113" stroke="#1F1F1F" stroke-width="2.03848" stroke-miterlimit="10" stroke-linecap="round"/>
<path d="M335.867 371.737V420.702V469.666" stroke="#1F1F1F" stroke-width="2.03848" stroke-miterlimit="10" stroke-linecap="round"/>
<path d="M385.179 492.549V477.799C385.179 476.732 384.968 475.675 384.56 474.69C384.151 473.704 383.553 472.809 382.798 472.054C382.043 471.3 381.147 470.702 380.161 470.295C379.175 469.887 378.119 469.677 377.052 469.678H294.682C293.616 469.677 292.559 469.887 291.574 470.295C290.588 470.702 289.692 471.301 288.938 472.055C288.184 472.809 287.586 473.705 287.178 474.69C286.77 475.676 286.561 476.732 286.562 477.799V492.561" stroke="#1F1F1F" stroke-width="2.03848" stroke-miterlimit="10" stroke-linecap="round"/>
<path d="M399.392 506.762C399.394 510.052 398.254 513.241 396.168 515.785C394.082 518.329 391.178 520.07 387.952 520.713C384.725 521.356 381.376 520.86 378.474 519.31C375.572 517.76 373.297 515.252 372.038 512.213C370.778 509.173 370.611 505.791 371.566 502.643C372.52 499.495 374.537 496.775 377.272 494.947C380.008 493.118 383.292 492.295 386.566 492.618C389.84 492.94 392.901 494.388 395.228 496.714C396.55 498.032 397.598 499.598 398.313 501.323C399.027 503.047 399.394 504.896 399.392 506.762Z" fill="#1F1F1F" stroke="#1F1F1F" stroke-width="2.03848" stroke-miterlimit="10" stroke-linecap="round"/>
<path d="M300.775 506.762C300.777 510.052 299.637 513.241 297.551 515.785C295.465 518.329 292.561 520.07 289.335 520.713C286.108 521.356 282.758 520.86 279.857 519.31C276.955 517.76 274.68 515.252 273.42 512.213C272.161 509.173 271.994 505.791 272.949 502.643C273.903 499.495 275.92 496.775 278.655 494.947C281.39 493.118 284.675 492.295 287.949 492.618C291.223 492.94 294.284 494.388 296.61 496.714C297.932 498.032 298.981 499.598 299.695 501.323C300.41 503.047 300.777 504.896 300.775 506.762Z" fill="#1F1F1F" stroke="#1F1F1F" stroke-width="2.03848" stroke-miterlimit="10" stroke-linecap="round"/>
<path d="M284.881 88.8469L288.527 98.8951L292.174 108.943L297.899 98.756L303.625 88.5688L294.253 88.7079L284.881 88.8469Z" fill="#FFF8F8" stroke="#1F1F1F" stroke-width="2.03848" stroke-miterlimit="10" stroke-linecap="round"/>
<path d="M337.675 134.355L314.924 121.652L292.174 108.944L306.785 82.7111L321.389 56.4722C324.107 69.4526 326.822 82.433 329.535 95.4135C332.248 108.394 334.962 121.374 337.675 134.355Z" fill="#FB4903" stroke="#1F1F1F" stroke-width="2.03848" stroke-miterlimit="10" stroke-linecap="round"/>
<path d="M292.174 108.944L282.132 80.2716L272.09 51.5933L261.96 91.3245L251.836 131.056L272.008 119.997L292.174 108.944Z" fill="#FB4903" stroke="#1F1F1F" stroke-width="2.03848" stroke-miterlimit="10" stroke-linecap="round"/>
<path d="M252.29 237.964C252.289 238.818 251.991 239.644 251.449 240.303C250.906 240.962 250.152 241.413 249.315 241.578C248.477 241.743 247.608 241.613 246.856 241.21C246.104 240.807 245.515 240.155 245.189 239.366C244.863 238.577 244.821 237.7 245.069 236.883C245.317 236.067 245.841 235.361 246.551 234.887C247.261 234.414 248.113 234.201 248.963 234.285C249.812 234.368 250.606 234.744 251.21 235.348C251.553 235.691 251.825 236.099 252.011 236.548C252.196 236.997 252.291 237.478 252.29 237.964Z" fill="#1F1F1F" stroke="#1F1F1F" stroke-width="2.03848" stroke-miterlimit="10" stroke-linecap="round"/>
<path d="M226.621 215.138L222.595 239.867L218.563 264.602" fill="#1F1F1F"/>
<path d="M226.621 215.138L222.595 239.867L218.563 264.602" stroke="#1F1F1F" stroke-width="2.03848" stroke-miterlimit="10" stroke-linecap="round"/>
<path d="M284.147 204.622C283.932 205.083 283.673 205.665 283.383 206.347C283.092 207.03 282.789 207.813 282.479 208.686C281.948 210.183 281.556 211.517 281.259 212.686C280.962 213.855 280.747 214.86 280.577 215.694C280.155 217.708 279.717 219.859 279.262 222.146C278.807 224.434 278.331 226.865 277.834 229.439" stroke="#1F1F1F" stroke-width="2.03848" stroke-miterlimit="10" stroke-linecap="round"/>
<path d="M275.528 223.227H190.472H105.417V162.692V102.15H190.472H275.528V162.692V223.227Z" fill="#3AE794" stroke="#1F1F1F" stroke-width="2.03848" stroke-miterlimit="10" stroke-linecap="round"/>
<path d="M195.333 255.103L199.188 239.165L203.05 223.227H187.813H172.583L168.722 239.165L164.867 255.103H164.86L163.691 259.931L162.528 264.759H177.759H192.995H215.916H238.837V259.931V255.103H217.085H195.333Z" fill="#3AE794" stroke="#1F1F1F" stroke-width="2.03848" stroke-miterlimit="10" stroke-linecap="round"/>
<path d="M187.996 151.455C187.765 150.088 187.719 148.696 187.857 147.316C188.09 145.003 188.918 142.216 191.301 140.301" stroke="#1F1F1F" stroke-width="2.03848" stroke-miterlimit="10" stroke-linecap="round"/>
<path d="M188.084 150.824C188.084 150.824 188.621 150.192 189.348 149.434C190.09 148.625 190.881 147.863 191.718 147.152C193.1 146.081 194.719 145.357 196.439 145.041C197.366 144.852 198.311 144.77 199.257 144.795C201.813 144.939 204.253 145.911 206.209 147.563C207.298 148.437 208.263 149.456 209.078 150.59C211.138 153.548 211.783 156.973 211.606 160.499C211.346 164.072 210.585 167.591 209.343 170.952C208.781 172.589 208.142 174.206 207.447 175.805C206.752 177.404 206.038 178.965 205.305 180.551C204.8 181.691 204.204 182.787 203.523 183.831C202.845 184.872 201.931 185.738 200.856 186.359C199.672 186.993 198.356 187.339 197.014 187.37C196.341 187.392 195.668 187.333 195.01 187.193C193.756 186.89 192.594 186.287 191.623 185.436C191.075 184.964 190.59 184.422 190.182 183.825C189.721 184.425 189.191 184.968 188.602 185.443C187.755 186.13 186.777 186.638 185.727 186.934C183.924 187.4 182.016 187.247 180.311 186.498C179.218 186.037 178.191 185.431 177.259 184.697C176.387 184.01 175.668 183.149 175.148 182.169C173.761 179.634 172.6 176.982 171.678 174.244C170.479 171.176 169.474 168.035 168.67 164.841C168.099 162.505 168.062 160.071 168.563 157.719C168.79 156.619 169.122 155.544 169.555 154.508C170.208 152.97 171.149 151.571 172.329 150.388C172.953 149.744 173.632 149.157 174.358 148.631C175.302 147.961 176.38 147.502 177.518 147.285C180.001 146.862 182.63 147.74 184.64 148.732C185.851 149.32 187.004 150.02 188.084 150.824Z" fill="#FB4903" stroke="#1F1F1F" stroke-width="2.03848" stroke-miterlimit="10" stroke-linecap="round"/>
<path d="M196.931 159.418C197.089 159.69 197.247 159.955 197.405 160.202C197.563 160.448 197.708 160.682 197.847 160.897C198.886 162.463 199.704 164.164 200.28 165.953C200.844 167.756 201.115 169.638 201.083 171.527C201.082 171.577 201.098 171.627 201.127 171.668C201.157 171.709 201.199 171.739 201.247 171.754C201.295 171.771 201.346 171.772 201.394 171.757C201.441 171.742 201.483 171.712 201.513 171.672C202.819 169.964 203.811 168.039 204.445 165.984C205.091 163.944 205.306 161.792 205.077 159.665C204.876 158.111 204.381 156.609 203.617 155.241C202.919 153.847 201.767 152.732 200.35 152.081C199.6 151.807 198.781 151.787 198.018 152.024C197.247 152.253 196.571 152.726 196.091 153.37C195.792 153.813 195.597 154.317 195.52 154.846C195.443 155.375 195.487 155.914 195.648 156.423C195.932 157.477 196.364 158.486 196.931 159.418Z" fill="#FFF8F8" stroke="#1F1F1F" stroke-width="2.03848" stroke-miterlimit="10" stroke-linecap="round"/>
<path d="M335.615 39.3645L321.282 37.7972L306.949 36.23C306.756 40.1102 307.076 43.9989 307.904 47.7948C309.662 56.0105 314.053 63.4281 320.41 68.9212C322.198 70.4686 324.118 71.8559 326.148 73.0669C328.085 70.5248 329.755 67.791 331.134 64.9083C333.761 59.4022 335.328 53.4509 335.754 47.3651C335.936 44.6992 335.89 42.0225 335.615 39.3645Z" fill="#1F1F1F" stroke="#1F1F1F" stroke-width="2.03848" stroke-miterlimit="10" stroke-linecap="round"/>
<path d="M316.416 64.9084C315.727 64.1058 315.209 63.4233 314.81 62.8671C314.412 62.311 314.178 61.875 313.97 61.5653C313.761 61.2556 313.711 61.1229 313.61 60.9333C313.509 60.7437 313.414 60.5731 313.344 60.4341L313.686 60.5858L314.096 60.7564L314.463 60.8828C314.678 60.9586 314.975 61.0471 315.272 61.1229C316.911 61.5451 318.628 61.564 320.276 61.1778C321.924 60.7917 323.453 60.0121 324.734 58.9058C326.015 57.7994 327.009 56.3992 327.631 54.8249C328.253 53.2507 328.484 51.5493 328.304 49.8662C328.125 48.1832 327.541 46.5686 326.601 45.1607C325.662 43.7528 324.395 42.5934 322.91 41.7817C321.425 40.9701 319.765 40.5303 318.073 40.5C316.38 40.4698 314.706 40.85 313.193 41.608C310.95 42.7358 309.165 44.6015 308.137 46.8912C307.903 46.1265 307.682 45.2671 307.505 44.3254C307.296 43.3086 307.142 42.2812 307.044 41.2478C306.955 40.2999 306.917 39.4025 306.917 38.562C306.917 37.7215 306.949 36.9442 307.006 36.2301L282.53 33.5316L258.067 30.8584C257.738 31.7431 257.435 32.6405 257.138 33.5505C256.841 34.4606 256.594 35.3959 256.361 36.3375C253.529 47.5001 254.957 59.3173 260.367 69.4837C265.53 78.9631 274.125 86.1801 284.912 88.8217C292.48 90.6601 300.432 90.0946 307.663 87.2039C314.995 84.2619 321.383 79.3712 326.135 73.0606C324.862 72.283 323.63 71.4393 322.444 70.5328C321.389 69.7365 320.498 68.9782 319.765 68.3209C319.361 67.9607 318.855 67.4804 318.28 66.9053C317.705 66.3303 317.079 65.6857 316.416 64.9084Z" fill="#FFD8D8" stroke="#1F1F1F" stroke-width="2.03848" stroke-miterlimit="10" stroke-linecap="round"/>
<path d="M269.329 56.0106C269.184 56.592 268.815 57.0924 268.302 57.4026C267.789 57.7128 267.175 57.8076 266.593 57.6663C266.304 57.596 266.032 57.4693 265.792 57.2936C265.552 57.1178 265.35 56.8964 265.196 56.6422C265.042 56.3879 264.94 56.1058 264.896 55.8119C264.851 55.5181 264.865 55.2183 264.937 54.9299C265.007 54.6411 265.134 54.3691 265.309 54.1295C265.485 53.8898 265.707 53.6872 265.961 53.5334C266.215 53.3795 266.497 53.2774 266.791 53.2329C267.085 53.1884 267.385 53.2025 267.673 53.2742C267.962 53.3425 268.234 53.4684 268.473 53.6444C268.712 53.8203 268.913 54.0426 269.063 54.2979C269.22 54.5513 269.324 54.8333 269.369 55.1274C269.415 55.4215 269.401 55.7218 269.329 56.0106Z" fill="#1F1F1F"/>
<path d="M292.679 52.1306C292.536 52.7132 292.167 53.2151 291.654 53.5266C291.142 53.8381 290.526 53.9338 289.943 53.7926C289.654 53.7223 289.382 53.5957 289.143 53.4199C288.903 53.2442 288.7 53.0228 288.547 52.7685C288.393 52.5143 288.291 52.2321 288.246 51.9383C288.202 51.6444 288.216 51.3447 288.287 51.0563C288.431 50.4737 288.8 49.9717 289.312 49.6602C289.825 49.3487 290.441 49.2531 291.024 49.3942C291.313 49.4645 291.585 49.5912 291.824 49.7669C292.064 49.9427 292.266 50.164 292.42 50.4183C292.574 50.6726 292.676 50.9547 292.721 51.2486C292.765 51.5424 292.751 51.8422 292.679 52.1306Z" fill="#1F1F1F"/>
<path d="M268.096 42.7333C272.734 40.8981 277.647 39.8514 282.631 39.6367C284.758 39.5448 286.889 39.6039 289.007 39.8137C290.732 39.9872 292.446 40.2615 294.139 40.6352" stroke="#1F1F1F" stroke-width="2.03848" stroke-miterlimit="10" stroke-linecap="round"/>
<path d="M274.574 41.4185L275.743 52.0796L276.919 62.7408L278.404 62.4501L279.895 62.1657" stroke="#1F1F1F" stroke-width="2.03848" stroke-miterlimit="10" stroke-linecap="round"/>
<path d="M305.912 3.04605C296.193 0.719411 285.949 2.30834 277.392 7.46976C268.442 12.8258 261.604 21.0941 258.022 30.8902L296.825 35.1306L335.614 39.3647C334.824 30.9104 331.601 22.866 326.337 16.2034C321.172 9.67902 313.989 5.05173 305.912 3.04605Z" fill="#1F1F1F" stroke="#1F1F1F" stroke-width="2.03848" stroke-miterlimit="10" stroke-linecap="round"/>
<path d="M313.756 53.5401L317.592 51.6758L321.428 49.8052" stroke="#1F1F1F" stroke-width="2.03848" stroke-miterlimit="10" stroke-linecap="round"/>
<path d="M272.767 32.4893C272.53 36.6457 271.045 40.634 268.507 43.9341C266.109 47.0869 262.744 49.3667 258.927 50.4243C257.496 50.8064 256.022 50.9998 254.541 50.9994C253.216 50.9972 251.895 50.8467 250.604 50.5507C247.318 49.8194 244.304 48.1818 241.902 45.8237C240.176 44.1415 238.848 42.0952 238.014 39.8343C237.179 37.5733 236.86 35.1547 237.08 32.7547C237.212 31.2797 237.559 29.8319 238.11 28.4574C239.342 25.469 241.373 22.8778 243.981 20.9687C245.273 19.9763 246.748 19.2488 248.321 18.828C249.895 18.4072 251.536 18.3014 253.151 18.5167C255.138 18.851 257.007 19.6886 258.579 20.9497C259.621 21.764 260.554 22.7092 261.354 23.762C260.962 24.3939 260.57 25.1333 260.184 25.8854C259.799 26.6374 259.42 27.421 259.053 28.2552C258.857 28.7102 258.668 29.1526 258.491 29.5886C258.314 30.0247 258.15 30.4607 257.998 30.8526L265.373 31.6615L272.767 32.4893Z" fill="#1F1F1F" stroke="#1F1F1F" stroke-width="2.03848" stroke-miterlimit="10" stroke-linecap="round"/>
<path d="M264.886 18.5293L298.854 23.0036L332.821 27.4715" stroke="#1F1F1F" stroke-width="2.03848" stroke-miterlimit="10" stroke-linecap="round"/>
<path d="M275.162 19.8809L273.626 26.1499L272.091 32.4189" stroke="#1F1F1F" stroke-width="2.03848" stroke-miterlimit="10" stroke-linecap="round"/>
<path d="M288.559 21.7393L287.112 27.667L285.658 33.5885" stroke="#1F1F1F" stroke-width="2.03848" stroke-miterlimit="10" stroke-linecap="round"/>
<path d="M304.915 24.0527L303.487 29.8731L302.059 35.6934" stroke="#1F1F1F" stroke-width="2.03848" stroke-miterlimit="10" stroke-linecap="round"/>
<path d="M321.617 26.2329L320.265 31.7436L318.912 37.248" stroke="#1F1F1F" stroke-width="2.03848" stroke-miterlimit="10" stroke-linecap="round"/>
<path d="M294.847 65.2813C294.787 65.0655 294.682 64.8648 294.538 64.6927C294.395 64.5205 294.217 64.3808 294.016 64.2828C293.814 64.1848 293.594 64.1307 293.37 64.1242C293.146 64.1177 292.924 64.1588 292.717 64.2449L289.323 65.6605L285.923 67.0761C284.786 68.7231 283.961 70.5654 283.49 72.5109C283.114 74.0021 282.902 75.53 282.858 77.0673C284.068 77.5254 285.357 77.7402 286.65 77.6993C287.931 77.6606 289.186 77.3322 290.322 76.7387C292.221 75.6956 293.689 74.0112 294.461 71.9864C295.317 69.8532 295.453 67.4986 294.847 65.2813Z" fill="#FB4903" stroke="#1F1F1F" stroke-width="2.03848" stroke-miterlimit="10" stroke-linecap="round"/>
<path d="M278.327 70.236C278.12 70.3241 277.934 70.4545 277.78 70.6188C277.627 70.7832 277.51 70.9778 277.436 71.1902C277.358 71.4031 277.328 71.6302 277.346 71.8561C277.365 72.0819 277.432 72.3011 277.543 72.4984C278.729 74.5959 280.612 76.2123 282.864 77.0674C282.908 75.5301 283.12 74.0022 283.496 72.511C283.967 70.5655 284.792 68.7232 285.929 67.0762L282.138 68.6561L278.327 70.236Z" fill="#1F1F1F" stroke="#1F1F1F" stroke-width="2.03848" stroke-miterlimit="10" stroke-linecap="round"/>
<path d="M464.124 21.7393H404.252C402.392 21.7393 400.607 22.4783 399.292 23.7938C397.976 25.1094 397.237 26.8936 397.237 28.754V87.3935C397.237 89.2539 397.976 91.0382 399.292 92.3537C400.607 93.6692 402.392 94.4082 404.252 94.4082H413.801L410.888 106.112L407.974 117.816L420.481 106.112L432.981 94.4082H464.124C465.984 94.4082 467.769 93.6692 469.084 92.3537C470.4 91.0382 471.139 89.2539 471.139 87.3935V28.754C471.139 26.8936 470.4 25.1094 469.084 23.7938C467.769 22.4783 465.984 21.7393 464.124 21.7393Z" fill="#FFF8F8" stroke="#1F1F1F" stroke-width="2.03848" stroke-miterlimit="10" stroke-linecap="round"/>
<path d="M457.134 58.4317C457.132 63.737 455.29 68.8773 451.922 72.9769C448.555 77.0765 443.87 79.8818 438.666 80.9149C433.463 81.948 428.062 81.145 423.383 78.6427C418.705 76.1404 415.039 72.0936 413.01 67.1916C410.981 62.2897 410.714 56.8358 412.255 51.7592C413.796 46.6826 417.049 42.2972 421.461 39.3502C425.872 36.4031 431.169 35.0767 436.449 35.5969C441.729 36.117 446.665 38.4516 450.416 42.2029C452.551 44.3316 454.243 46.8613 455.396 49.6465C456.549 52.4317 457.139 55.4173 457.134 58.4317Z" fill="#FB4903" stroke="#1F1F1F" stroke-width="2.03848" stroke-miterlimit="10" stroke-linecap="round"/>
<path d="M451.529 58.4311C451.524 62.4452 450.128 66.3336 447.578 69.4335C445.027 72.5333 441.481 74.6528 437.543 75.4307C433.605 76.2086 429.519 75.5967 425.982 73.6993C422.444 71.8019 419.674 68.7365 418.144 65.0255C416.614 61.3146 416.418 57.1878 417.59 53.3485C418.761 49.5092 421.228 46.1951 424.57 43.971C427.911 41.747 431.921 40.7506 435.915 41.1518C439.909 41.553 443.64 43.3269 446.473 46.1711C448.082 47.7806 449.357 49.6923 450.225 51.7964C451.092 53.9004 451.535 56.1552 451.529 58.4311Z" fill="#FFF8F8" stroke="#1F1F1F" stroke-width="2.03848" stroke-miterlimit="10" stroke-linecap="round"/>
<path d="M436.601 58.3113H427.88V50.4624H436.601C437.641 50.4641 438.637 50.8783 439.372 51.6141C440.106 52.3499 440.519 53.3471 440.519 54.3869C440.519 55.4277 440.106 56.4259 439.37 57.1619C438.634 57.8979 437.635 58.3113 436.595 58.3113H436.601Z" stroke="#1F1F1F" stroke-width="2.03848" stroke-miterlimit="10" stroke-linecap="round"/>
<path d="M436.601 66.2796H427.88V58.4307H436.601C437.642 58.4307 438.64 58.8441 439.376 59.5801C440.112 60.3161 440.525 61.3143 440.525 62.3551C440.525 63.396 440.112 64.3942 439.376 65.1301C438.64 65.8661 437.642 66.2796 436.601 66.2796Z" stroke="#1F1F1F" stroke-width="2.03848" stroke-miterlimit="10" stroke-linecap="round"/>
<path d="M431.236 46.0952V48.2755V50.462" stroke="#1F1F1F" stroke-width="2.03848" stroke-miterlimit="10" stroke-linecap="round"/>
<path d="M434.996 46.0952V48.2755V50.462" stroke="#1F1F1F" stroke-width="2.03848" stroke-miterlimit="10" stroke-linecap="round"/>
<path d="M431.236 66.3999V68.5865V70.7667" stroke="#1F1F1F" stroke-width="2.03848" stroke-miterlimit="10" stroke-linecap="round"/>
<path d="M434.996 66.3999V68.5865V70.7667" stroke="#1F1F1F" stroke-width="2.03848" stroke-miterlimit="10" stroke-linecap="round"/>
<path d="M323.032 462.765C319.5 453.209 316.327 444.906 313.755 438.302C311.183 431.698 309.205 426.787 308.068 424.007C307.609 422.841 307.037 421.724 306.361 420.67C305.423 419.206 304.189 417.953 302.74 416.992C302.061 416.546 301.334 416.177 300.573 415.892C299.263 415.415 297.901 415.097 296.515 414.944C294.925 414.809 293.323 414.879 291.75 415.153C288.023 415.76 284.354 416.689 280.786 417.927C278.365 418.685 275.993 419.59 273.683 420.638C270.967 421.906 268.431 423.53 266.143 425.466C264.537 426.829 263.057 428.333 261.72 429.96C260.696 431.201 259.755 432.508 258.901 433.872C258.901 433.872 258.351 428.14 255.514 423.577C252.676 419.014 247.558 415.627 238.451 420.31L228.814 425.479L219.208 430.642C217.619 431.5 216.435 432.954 215.917 434.684C215.399 436.414 215.589 438.279 216.446 439.869L220.497 447.351L224.548 454.84C225.715 456.962 226.244 459.376 226.071 461.791C225.774 465.836 223.353 471.005 214.873 475.492L198.96 482.981L183.047 490.438C180.443 491.664 177.827 492.865 175.198 494.04C172.569 495.216 169.934 496.383 167.292 497.541C162.673 499.57 155.051 503.507 149.863 509.277C144.675 515.047 141.913 522.662 147.006 532.027L243.064 520.342L339.122 508.664L331.065 485.705C328.394 478.067 325.716 470.42 323.032 462.765Z" fill="#3AE794" stroke="#1F1F1F" stroke-width="2.03848" stroke-miterlimit="10" stroke-linecap="round"/>
<path d="M258.876 433.872C258.634 438.134 258 442.365 256.98 446.511C255.299 453.38 252.133 461.324 246.236 465.64" stroke="#1F1F1F" stroke-width="2.03848" stroke-miterlimit="10" stroke-linecap="round"/>
<path d="M222.607 469.666L229.995 472.744L237.383 475.79" stroke="#1F1F1F" stroke-width="2.03848" stroke-miterlimit="10" stroke-linecap="round"/>
<path d="M205.21 480.327L211.966 484.119L218.702 487.98" stroke="#1F1F1F" stroke-width="2.03848" stroke-miterlimit="10" stroke-linecap="round"/>
<path d="M189.069 487.98L196.16 492.549L203.257 497.118" stroke="#1F1F1F" stroke-width="2.03848" stroke-miterlimit="10" stroke-linecap="round"/>
<path d="M285.134 440.387C285.131 441.895 284.605 443.355 283.646 444.518C282.688 445.682 281.355 446.477 279.876 446.768C278.397 447.059 276.862 446.828 275.534 446.114C274.206 445.401 273.167 444.249 272.593 442.854C272.019 441.46 271.947 439.91 272.388 438.469C272.829 437.027 273.756 435.783 275.012 434.948C276.267 434.114 277.774 433.741 279.274 433.892C280.774 434.044 282.174 434.711 283.238 435.78C283.841 436.386 284.319 437.104 284.645 437.895C284.97 438.685 285.136 439.532 285.134 440.387Z" fill="#3AE794" stroke="#1F1F1F" stroke-width="2.03848" stroke-miterlimit="10" stroke-linecap="round"/>
<path d="M339.406 508.766L243.203 520.236L147.006 531.687C149.011 536.2 152.407 539.953 156.699 542.397C160.99 544.841 165.952 545.847 170.856 545.268L206.701 541.033L242.552 536.799C244.761 536.538 246.935 536.038 249.036 535.308C251.139 534.582 253.158 533.633 255.058 532.477L256.777 531.421L258.515 530.379C258.736 530.245 258.985 530.166 259.242 530.147C259.499 530.129 259.757 530.172 259.995 530.272C260.232 530.373 260.442 530.528 260.608 530.726C260.774 530.923 260.89 531.157 260.948 531.409C261.14 532.268 261.644 533.025 262.362 533.535C263.079 534.045 263.96 534.271 264.835 534.17L281.386 532.211L297.937 530.252C298.709 530.164 299.436 529.84 300.018 529.324C300.6 528.809 301.01 528.127 301.191 527.371L301.362 526.65L301.539 525.923C301.581 525.75 301.671 525.592 301.798 525.468C301.926 525.344 302.086 525.258 302.26 525.22C302.434 525.182 302.615 525.195 302.783 525.255C302.95 525.316 303.098 525.423 303.207 525.563L303.953 526.827L304.699 528.091C304.914 528.463 305.235 528.762 305.621 528.95C306.01 529.151 306.452 529.226 306.885 529.165L310.298 528.761L313.717 528.363C314.165 528.31 314.586 528.122 314.924 527.824C315.263 527.526 315.503 527.132 315.613 526.694L315.935 525.342L316.263 523.99C316.305 523.816 316.395 523.659 316.523 523.534C316.65 523.41 316.811 523.324 316.985 523.286C317.159 523.249 317.34 523.261 317.508 523.322C317.675 523.382 317.822 523.489 317.932 523.629L318.406 524.438L318.88 525.253C319.283 525.949 319.884 526.51 320.605 526.865C321.326 527.226 322.136 527.369 322.937 527.276L325.319 526.991L327.702 526.707C329.73 526.464 331.679 525.779 333.414 524.701C335.148 523.623 336.625 522.178 337.741 520.468C338.857 518.757 339.584 516.823 339.872 514.801C340.159 512.78 340 510.719 339.406 508.766Z" fill="#FB4903" stroke="#1F1F1F" stroke-width="2.03848" stroke-miterlimit="10" stroke-linecap="round"/>
<path d="M395.651 371.978H305.502L303.789 352.039L302.083 332.107L348.848 332.234L395.613 332.354C396.468 332.353 397.315 332.521 398.105 332.848C398.895 333.174 399.613 333.654 400.217 334.259C400.822 334.863 401.302 335.581 401.628 336.371C401.955 337.161 402.123 338.008 402.122 338.863V365.462C402.123 366.317 401.955 367.164 401.628 367.954C401.302 368.744 400.822 369.462 400.217 370.067C399.613 370.671 398.895 371.151 398.105 371.478C397.315 371.804 396.468 371.972 395.613 371.971L395.651 371.978Z" fill="#3AE794" stroke="#1F1F1F" stroke-width="2.03848" stroke-miterlimit="10" stroke-linecap="round"/>
<path d="M365.107 276.685L397.641 407.93L430.168 539.175" stroke="#1F1F1F" stroke-width="2.03848" stroke-miterlimit="10" stroke-linecap="round"/>
<path d="M302.482 332.29L347.623 351.799L392.745 371.301C393.799 371.757 394.95 371.942 396.094 371.84C397.238 371.738 398.338 371.352 399.295 370.716C400.252 370.081 401.035 369.217 401.573 368.202C402.111 367.187 402.387 366.054 402.376 364.906L402.243 351.489L402.104 338.079C402.084 336.567 401.471 335.123 400.396 334.059C399.321 332.995 397.872 332.396 396.359 332.391L349.449 332.265L302.539 332.139C302.518 332.137 302.497 332.143 302.481 332.156C302.464 332.169 302.453 332.187 302.45 332.208C302.448 332.223 302.45 332.239 302.455 332.253C302.461 332.268 302.47 332.28 302.482 332.29Z" fill="#1F1F1F" stroke="#1F1F1F" stroke-width="2.03848" stroke-miterlimit="10" stroke-linecap="round"/>
<path d="M382.025 150.148C384.397 156.164 386.764 162.176 389.128 168.184L396.238 186.22C396.254 186.26 396.254 186.306 396.238 186.346C396.227 186.366 396.213 186.384 396.195 186.398C396.178 186.412 396.158 186.422 396.136 186.428L380.483 190.808L364.823 195.194C364.796 195.2 364.768 195.2 364.741 195.192C364.714 195.184 364.69 195.169 364.671 195.149C364.65 195.128 364.636 195.101 364.631 195.072C364.625 195.043 364.628 195.013 364.64 194.985L373.184 172.563L381.747 150.154C381.757 150.124 381.777 150.098 381.803 150.08C381.829 150.062 381.86 150.052 381.892 150.053C381.921 150.054 381.949 150.064 381.972 150.081C381.996 150.098 382.014 150.121 382.025 150.148Z" fill="#1F1F1F" stroke="#1F1F1F" stroke-width="2.03848" stroke-miterlimit="10" stroke-linecap="round"/>
</svg>
