<svg width="156" height="189" viewBox="0 0 156 189" fill="none" xmlns="http://www.w3.org/2000/svg">
<path d="M52.2046 86.9535C49.1558 90.0022 44.1174 90.4873 38.4455 88.8045C32.7736 87.1217 26.4583 83.2811 20.8457 77.6686C15.2332 72.056 11.3826 65.7902 9.69988 60.0688C8.01712 54.3474 8.50214 49.3585 11.5509 46.3097C14.5997 43.2609 19.6282 42.7759 25.31 44.4587C30.9918 46.1414 37.2972 49.9821 42.9098 55.5946C48.5223 61.2071 52.3728 67.5324 54.0457 73.2043C55.7186 78.8762 55.2435 83.9146 52.2046 86.9535Z" fill="#5C4BD6" stroke="#1F1F1F" stroke-width="2.03848" stroke-miterlimit="10" stroke-linecap="round"/>
<path d="M47.8882 90.7455C45.3941 93.2715 42.2023 94.995 38.7221 95.6948C35.2506 96.4002 31.6467 96.0343 28.3879 94.6455C25.6582 93.4824 23.0462 92.0604 20.5878 90.399C17.6936 88.4506 15.036 86.1717 12.6689 83.6086C10.3347 81.0544 8.2959 78.2453 6.59111 75.2343C5.12054 72.6436 3.87535 69.9313 2.86925 67.1274C1.90352 64.4305 1.7385 61.5119 2.3941 58.7234C3.04545 55.929 4.46884 53.3737 6.50202 51.3489L8.90741 48.9337L11.3227 46.5283C11.0154 46.9219 10.7344 47.3353 10.4813 47.7656C10.1459 48.3296 9.85465 48.9187 9.61021 49.5276C7.32363 55.3183 9.89726 61.9108 13.1935 67.2065C15.456 70.7909 18.1121 74.1111 21.1124 77.1052C25.4026 81.2683 30.3445 84.7022 35.7426 87.2711C41.1373 89.7259 46.5123 90.6762 50.3331 88.3896C50.6768 88.1681 51.0073 87.9268 51.323 87.667C51.6695 87.3997 51.9862 87.1325 52.1347 87.0038L50.0956 88.8548L47.8882 90.7455Z" fill="#5C4BD6" stroke="#1F1F1F" stroke-width="2.03848" stroke-miterlimit="10" stroke-linecap="round"/>
<path d="M6.94824 75.739L10.7097 72.3833L14.4712 69.0376" stroke="#1F1F1F" stroke-width="2.03848" stroke-miterlimit="10" stroke-linecap="round"/>
<path d="M13.5684 83.4989L16.8052 80.6085L20.0421 77.728" stroke="#1F1F1F" stroke-width="2.03848" stroke-miterlimit="10" stroke-linecap="round"/>
<path d="M35.1569 86.9141L31.6429 90.1707L28.1289 93.4274" stroke="#1F1F1F" stroke-width="2.03848" stroke-miterlimit="10" stroke-linecap="round"/>
<path d="M143.578 124.527C147.394 128.343 148.003 134.67 145.89 141.793C143.777 148.915 138.979 156.858 131.906 163.906C124.833 170.954 116.99 175.777 109.805 177.89C102.62 180.003 96.3556 179.394 92.5271 175.565C88.6986 171.737 88.0895 165.422 90.2026 158.287C92.3158 151.153 97.1511 143.235 104.199 136.187C111.247 129.139 119.177 124.316 126.3 122.203C133.422 120.089 139.749 120.699 143.578 124.527Z" fill="#3AE794" stroke="#1F1F1F" stroke-width="2.03848" stroke-miterlimit="10" stroke-linecap="round"/>
<path d="M148.324 129.932C151.495 133.07 153.658 137.081 154.539 141.454C155.421 145.811 154.957 150.332 153.209 154.419C151.749 157.847 149.963 161.127 147.877 164.214C145.43 167.848 142.568 171.186 139.35 174.158C136.146 177.094 132.618 179.654 128.834 181.79C125.58 183.637 122.174 185.201 118.653 186.464C115.268 187.681 111.601 187.888 108.1 187.061C104.594 186.242 101.387 184.459 98.8396 181.915L95.8067 178.882L92.7861 175.849C93.2847 176.229 93.8033 176.581 94.3399 176.905C95.0481 177.326 95.7878 177.692 96.5524 177.999C103.824 180.87 112.103 177.651 118.753 173.499C123.25 170.652 127.418 167.318 131.183 163.555C136.418 158.141 140.73 151.905 143.949 145.096C147.031 138.334 148.225 131.572 145.353 126.774C145.072 126.345 144.769 125.93 144.446 125.531C144.11 125.096 143.775 124.698 143.626 124.524L146 127.222L148.324 129.932Z" fill="#3AE794" stroke="#1F1F1F" stroke-width="2.03848" stroke-miterlimit="10" stroke-linecap="round"/>
<path d="M129.48 181.344L125.278 176.62L121.064 171.909" stroke="#1F1F1F" stroke-width="2.03848" stroke-miterlimit="10" stroke-linecap="round"/>
<path d="M139.225 173.03L135.608 168.965L131.979 164.9" stroke="#1F1F1F" stroke-width="2.03848" stroke-miterlimit="10" stroke-linecap="round"/>
<path d="M143.515 145.919L147.604 150.332L151.694 154.744" stroke="#1F1F1F" stroke-width="2.03848" stroke-miterlimit="10" stroke-linecap="round"/>
<path d="M139.2 48.4998L115 24.2998" stroke="#11102E" stroke-width="2" stroke-miterlimit="10" stroke-linecap="round" stroke-linejoin="round"/>
<path d="M144.2 36.3999H110" stroke="#11102E" stroke-width="2" stroke-miterlimit="10" stroke-linecap="round" stroke-linejoin="round"/>
<path d="M139.2 24.2998L115 48.4998" stroke="#11102E" stroke-width="2" stroke-miterlimit="10" stroke-linecap="round" stroke-linejoin="round"/>
<path d="M127.1 1V70.1" stroke="#11102E" stroke-width="2" stroke-miterlimit="10" stroke-linecap="round" stroke-linejoin="round"/>
</svg>
