<svg width="98" height="98" viewBox="0 0 98 98" fill="none" xmlns="http://www.w3.org/2000/svg">
<path d="M38.6366 87.6268C59.9752 93.3445 81.9087 80.6812 87.6264 59.3426C93.344 38.0039 80.6807 16.0704 59.3421 10.3528C38.0035 4.63509 16.07 17.2984 10.3523 38.637C4.63464 59.9757 17.2979 81.9092 38.6366 87.6268Z" fill="white" stroke="#1F1F1F" stroke-width="2" stroke-miterlimit="10" stroke-linecap="round" stroke-linejoin="round"/>
<path d="M41.6578 76.3519C56.7695 80.4011 72.3025 71.4331 76.3516 56.3214C80.4008 41.2097 71.4328 25.6767 56.3211 21.6276C41.2094 17.5784 25.6765 26.5464 21.6273 41.6581C17.5781 56.7698 26.5461 72.3027 41.6578 76.3519Z" fill="#3AE794" stroke="#1F1F1F" stroke-width="2" stroke-miterlimit="10" stroke-linecap="round" stroke-linejoin="round"/>
<path d="M37.1275 63.4121L60.8526 34.5684" stroke="#1F1F1F" stroke-width="2" stroke-miterlimit="10" stroke-linecap="round" stroke-linejoin="round"/>
<path d="M44.3072 43.7276C46.3365 44.2713 48.6727 42.1325 49.5253 38.9504C50.3779 35.7683 49.4241 32.748 47.3949 32.2042C45.3657 31.6605 43.0295 33.7993 42.1769 36.9814C41.3242 40.1635 42.278 43.1839 44.3072 43.7276Z" stroke="#1F1F1F" stroke-width="2" stroke-miterlimit="10" stroke-linecap="round" stroke-linejoin="round"/>
<path d="M50.5846 65.7745C52.6138 66.3182 54.95 64.1794 55.8027 60.9973C56.6553 57.8152 55.7015 54.7948 53.6723 54.2511C51.6431 53.7074 49.3068 55.8462 48.4542 59.0283C47.6016 62.2104 48.5554 65.2307 50.5846 65.7745Z" stroke="#1F1F1F" stroke-width="2" stroke-miterlimit="10" stroke-linecap="round" stroke-linejoin="round"/>
<path d="M30.0264 39.4087C28.0069 43.2156 27.3627 47.7341 28.239 51.9538" stroke="#1F1F1F" stroke-width="2" stroke-miterlimit="10" stroke-linecap="round" stroke-linejoin="round"/>
</svg>
