<svg width="123" height="160" viewBox="0 0 123 160" fill="none" xmlns="http://www.w3.org/2000/svg">
<path d="M118.322 158.153C117.279 157.844 116.493 156.87 116.4 155.613L113.117 111.05L86.6905 135.126C85.8966 135.849 84.8283 136.078 83.9003 135.716C82.9679 135.357 82.3118 134.471 82.1816 133.393L75.0639 74.6091L52.0762 97.5911C51.331 98.3364 50.3031 98.6215 49.3682 98.344C49.3575 98.3408 49.3455 98.337 49.3335 98.3339C48.3897 98.0393 47.6893 97.2119 47.4927 96.1606L38.1967 46.3173C37.8927 44.6852 38.8769 43.0195 40.3953 42.5966C41.9149 42.1756 43.3915 43.1554 43.6962 44.7876L52.0471 89.5632L75.337 66.279C76.117 65.499 77.2062 65.2038 78.1689 65.5666C79.1329 65.9073 79.8175 66.8081 79.9508 67.9124L87.1058 127.006L113.769 102.714C114.582 101.974 115.683 101.757 116.624 102.151C117.57 102.545 118.211 103.486 118.293 104.599L121.991 154.792C122.113 156.464 120.962 158.002 119.418 158.228C119.036 158.284 118.664 158.254 118.322 158.153Z" fill="white" stroke="#1F1F1F" stroke-width="2" stroke-miterlimit="10" stroke-linecap="round" stroke-linejoin="round"/>
<path d="M29.0655 1L43.4064 23.8973L69.6154 17.334L52.27 38.0492L66.611 60.9465L41.5499 50.8516L24.2045 71.5662L26.0611 44.6125L1 34.5169L27.209 27.9536L29.0655 1Z" fill="#5C4BD6" stroke="#1F1F1F" stroke-width="2" stroke-miterlimit="10" stroke-linecap="round" stroke-linejoin="round"/>
</svg>
